<?xml version="1.0" encoding="utf-8"?>
<!-- Generator: Adobe Illustrator 25.0.0, SVG Export Plug-In . SVG Version: 6.00 Build 0)  -->
<svg version="1.1" xmlns="http://www.w3.org/2000/svg" xmlns:xlink="http://www.w3.org/1999/xlink" x="0px" y="0px"
	 viewBox="0 0 750 500" style="enable-background:new 0 0 750 500;" xml:space="preserve">
<style type="text/css">
	.st0{display:none;opacity:0.5;fill:#E5E1D6;}
	.st1{display:none;opacity:0.05;}
	.st2{opacity:0.05;}
	.st3{display:inline;}
	.st4{display:inline;clip-path:url(#SVGID_2_);}
	.st5{fill:#E25E54;}
	.st6{opacity:0.4;}
	.st7{clip-path:url(#SVGID_4_);}
	.st8{fill:#C2AF5E;}
	.st9{fill:#4F5C8B;}
	.st10{fill:#006666;}
	.st11{fill:#FF9F57;}
	.st12{fill:#732A70;}
	.st13{fill:#303030;}
	.st14{fill:#EDBFBA;}
</style>
<g id="background">
	<rect class="st0" width="750" height="500"/>
	<g class="st1">
		<defs>
			<rect id="SVGID_1_" class="st2" width="750" height="500"/>
		</defs>
		<clipPath id="SVGID_2_" class="st3">
			<use xlink:href="#SVGID_1_"  style="overflow:visible;"/>
		</clipPath>
		<g class="st4">
			<g>
				<g>
					<g>
						<path class="st5" d="M430.24-68.75c-4.15,25.58-6.56,51.44-7.15,77.36c-0.59,25.87,0.61,51.78,3.6,77.48
							c1.48,12.72,3.38,25.39,5.73,37.97c1.94,10.4,4.28,20.75,7.61,30.8c6.42,19.31,17.02,38.01,34.55,49.21
							c16.49,10.54,37.4,13.8,56.4,9.34c9.72-2.28,18.71-6.69,26.61-12.77c8.08-6.22,14.9-13.84,21.17-21.84
							c6.35-8.1,12.19-16.58,18.45-24.76c6.46-8.43,13.5-16.29,21.53-23.26c16.8-14.6,36.34-25.52,54.59-38.14
							c8.78-6.07,17.47-12.5,25.08-20.01c7.15-7.06,13.39-15.1,18.38-23.82c9.35-16.33,14.89-36.34,9.38-54.91
							c-1.31-4.41-3.23-8.63-5.66-12.54c-1.02-1.64-3.61-0.13-2.59,1.51c10.17,16.35,8.77,36.19,1.69,53.44
							c-3.71,9.05-8.95,17.53-15.1,25.11c-6.44,7.94-14,14.74-22.1,20.94c-17.22,13.17-36.26,23.71-53.67,36.61
							c-8.6,6.38-16.81,13.32-24.01,21.27c-6.8,7.51-12.76,15.74-18.73,23.92c-11.62,15.91-23.93,32.69-42.12,41.53
							c-17.3,8.41-38.12,8.69-55.96,1.78c-9.13-3.54-17.32-9.09-24.06-16.2c-6.98-7.37-12.3-16.15-16.4-25.4
							c-8.86-19.98-12.49-42.17-15.64-63.65c-3.68-25.1-5.62-50.46-5.84-75.83c-0.23-25.41,1.27-50.84,4.5-76.04
							c0.78-6.12,1.68-12.23,2.67-18.32C433.44-69.84,430.55-70.65,430.24-68.75L430.24-68.75z"/>
					</g>
				</g>
				<g>
					<g>
						<path class="st5" d="M438.43-55.38c-3.56,21.95-5.63,44.14-6.15,66.37c-0.51,22.26,0.51,44.55,3.07,66.67
							c1.28,11,2.92,21.96,4.95,32.85c1.67,8.96,3.68,17.88,6.56,26.53c5.56,16.72,14.78,32.88,30,42.52
							c14.25,9.02,32.26,11.75,48.62,7.86c8.33-1.98,16.03-5.79,22.8-11c6.93-5.34,12.78-11.87,18.16-18.73
							c5.49-7,10.53-14.33,15.94-21.38c5.52-7.21,11.56-13.94,18.42-19.9c14.42-12.54,31.18-21.91,46.85-32.73
							c7.6-5.25,15.14-10.82,21.72-17.33c6.14-6.07,11.5-12.99,15.79-20.48c8.08-14.1,12.84-31.38,8.08-47.41
							c-1.13-3.8-2.79-7.43-4.88-10.79c-1.02-1.64-3.61-0.13-2.59,1.51c8.69,13.98,7.51,30.91,1.48,45.67
							c-6.57,16.07-18.23,29.1-31.88,39.55c-14.84,11.35-31.25,20.43-46.25,31.55c-7.4,5.48-14.45,11.45-20.64,18.29
							c-5.83,6.44-10.95,13.5-16.06,20.51c-9.96,13.64-20.5,28.04-36.07,35.65c-14.79,7.23-32.6,7.51-47.89,1.64
							c-7.8-2.99-14.8-7.7-20.57-13.73c-6.03-6.31-10.63-13.84-14.17-21.78c-7.67-17.21-10.8-36.35-13.52-54.87
							c-3.17-21.57-4.83-43.37-5.02-65.18c-0.19-21.78,1.08-43.57,3.84-65.18c0.68-5.31,1.45-10.6,2.31-15.89
							C441.63-56.47,438.74-57.28,438.43-55.38L438.43-55.38z"/>
					</g>
				</g>
				<g>
					<g>
						<path class="st5" d="M456.17-31.7c-3.15,19.33-5.18,38.83-6.05,58.39c-0.86,19.43-0.57,38.91,0.9,58.3
							c0.69,9.1,1.59,18.21,2.93,27.24c1.22,8.17,2.88,16.35,5.71,24.13c2.57,7.07,6.13,13.92,11.37,19.39
							c4.98,5.18,11.56,8.8,18.65,10.07c7.07,1.26,14.3,0.29,20.86-2.6c6.12-2.7,11.1-7.03,15.27-12.2
							c8.93-11.09,15.15-24.06,23.08-35.83c1.83-2.71,3.74-5.37,5.85-7.87c2.34-2.76,5.02-5.15,7.65-7.62
							c6.47-6.08,12.77-12.35,18.77-18.89c9.59-10.46,18.5-21.68,25.55-34.03c5.86-10.25,10.31-21.26,13.25-32.7
							c3.02-11.76,4.53-23.85,5.54-35.93c0.27-3.26,0.5-6.52,0.71-9.79c0.12-1.93-2.88-1.92-3,0c-0.79,12.22-1.85,24.46-4.23,36.48
							c-2.2,11.12-5.6,21.99-10.54,32.22c-5.66,11.72-13.09,22.5-21.41,32.49c-5.12,6.15-10.57,12.04-16.2,17.73
							c-3.12,3.16-6.3,6.26-9.53,9.31c-2.74,2.59-5.61,5.07-8.1,7.91c-9.06,10.36-15.21,22.99-22.59,34.53
							c-3.39,5.3-7,10.62-11.57,14.97c-4.95,4.72-11.34,7.88-18.09,8.99c-6.73,1.11-13.81-0.05-19.81-3.27
							c-6.42-3.44-11.19-9.02-14.66-15.35c-3.76-6.85-6.03-14.44-7.69-22.04c-1.8-8.28-2.83-16.71-3.7-25.14
							c-1.93-18.81-2.71-37.73-2.41-56.63c0.31-19.17,1.73-38.33,4.26-57.34c0.63-4.71,1.33-9.41,2.09-14.11
							C459.37-32.79,456.48-33.6,456.17-31.7L456.17-31.7z"/>
					</g>
				</g>
				<g>
					<g>
						<path class="st5" d="M466.23-34.09c-2.66,16.35-4.4,32.85-5.14,49.4c-0.74,16.36-0.53,32.77,0.68,49.1
							c0.57,7.8,1.33,15.6,2.44,23.34c1,6.96,2.36,13.92,4.67,20.58c2.12,6.11,5.07,12.01,9.42,16.84
							c4.04,4.48,9.42,7.72,15.31,9.08c5.87,1.35,12.14,0.88,17.75-1.31c5.94-2.32,10.89-6.34,15.01-11.16
							c8.63-10.09,13.85-22.54,22.01-32.97c5.51-7.04,11.31-13.86,16.72-20.98c5.17-6.81,9.99-13.9,14.07-21.42
							c4.65-8.58,8.33-17.66,11.18-26.99c3.7-12.08,6.08-24.54,7.79-37.05c0.51-3.72,0.96-7.46,1.37-11.19c0.21-1.92-2.79-1.9-3,0
							c-2.5,23.1-6.76,46.59-16.86,67.7c-7.3,15.26-17.72,28.45-28.31,41.52c-3.41,4.21-6.83,8.39-9.82,12.93
							c-3.62,5.49-6.82,11.24-10.36,16.78c-6.5,10.18-14.97,20.39-27.8,21.77c-5.67,0.61-11.43-0.55-16.36-3.42
							c-5.37-3.13-9.26-8.08-12.08-13.53c-6.34-12.25-7.9-26.68-9.25-40.2c-3.19-32.01-2.55-64.42,1.73-96.3
							c0.52-3.9,1.11-7.8,1.74-11.69C469.43-35.18,466.54-36,466.23-34.09L466.23-34.09z"/>
					</g>
				</g>
				<g>
					<g>
						<path class="st5" d="M481.98-35.13c-3.13,18.63-6.24,37.35-7.08,56.25c-0.42,9.34-0.27,18.72,0.75,28.02
							c0.83,7.62,1.87,15.51,5.17,22.52c2.8,5.95,7.67,10.99,14.52,11.59c8,0.71,15.05-5.09,20.3-10.43
							c11.61-11.8,21.3-25.39,29.63-39.66c8.45-14.47,15.55-29.68,22.19-45.05c0.83-1.91,1.64-3.82,2.46-5.74
							c0.32-0.75,0.22-1.6-0.54-2.05c-0.63-0.38-1.74-0.21-2.05,0.54c-6.3,14.82-12.9,29.53-20.63,43.67
							c-7.67,14.04-16.47,27.54-27.05,39.57c-4.99,5.67-10.55,12.32-17.78,15.13c-3.25,1.26-6.87,1.51-10.12,0.09
							c-2.71-1.18-4.86-3.35-6.46-5.79c-3.82-5.84-5.07-12.96-6.05-19.75c-1.29-8.96-1.68-18.05-1.51-27.09
							c0.35-18.24,3.06-36.33,6.03-54.3c0.37-2.24,0.75-4.48,1.12-6.72C485.19-36.22,482.3-37.03,481.98-35.13L481.98-35.13z"/>
					</g>
				</g>
				<g>
					<g>
						<path class="st5" d="M498.31-31.64c-3.96,11.37-6.2,23.32-6.62,35.36c-0.21,5.97,0,11.98,0.74,17.92
							c0.53,4.26,1.52,8.76,4.05,12.32c2.67,3.78,6.91,5.79,11.55,4.96c5.29-0.95,9.54-5.06,13.13-8.77
							c7.85-8.11,15.07-16.84,21.6-26.04c7.39-10.41,13.88-21.45,19.38-32.97c0.83-1.73-1.76-3.26-2.59-1.51
							c-9.26,19.37-21.3,37.39-35.73,53.29c-4.89,5.39-15.36,18.67-23.45,11.01c-2.96-2.8-4.12-7.13-4.76-11.03
							c-0.87-5.3-1.04-10.8-0.99-16.17c0.12-12.79,2.37-25.49,6.58-37.57C501.84-32.67,498.94-33.46,498.31-31.64L498.31-31.64z"/>
					</g>
				</g>
			</g>
			<g>
				<g>
					<path class="st5" d="M289.25,597.01c-0.3-25.44-2.35-50.85-6.08-76.01c-3.73-25.12-9.17-49.99-16.26-74.37
						c-3.56-12.24-7.54-24.35-11.94-36.31c-3.65-9.94-7.61-19.79-12.46-29.21c-9.34-18.15-22.62-35.43-41.62-44.12
						c-18.08-8.27-39.58-8.51-57.98-1.06c-9.28,3.76-17.55,9.41-24.45,16.67c-7.14,7.52-12.74,16.33-17.66,25.41
						c-5.04,9.3-9.43,18.94-14.32,28.31c-4.99,9.55-10.64,18.64-17.48,26.98c-14.19,17.3-31.63,31.48-47.5,47.15
						c-7.6,7.51-15.01,15.37-21.17,24.13c-5.75,8.17-10.4,17.12-13.76,26.53c-6.3,17.63-8.11,38.07,0.44,55.29
						c2.05,4.12,4.69,7.92,7.75,11.35c1.29,1.44,3.4-0.68,2.12-2.12c-12.71-14.22-14.78-33.97-10.81-52.01
						c2.1-9.56,5.73-18.76,10.46-27.32c4.93-8.92,11.15-16.88,18.03-24.38c14.75-16.07,31.81-29.8,46.85-45.58
						c7.43-7.8,14.36-16.14,20.12-25.27c5.48-8.69,9.97-17.95,14.5-27.15c8.87-17.99,18.44-37.1,35.56-48.64
						c16.19-10.92,37.07-14.36,56-9.76c9.65,2.35,18.6,6.85,26.3,13.13c7.81,6.37,14.25,14.22,19.62,22.71
						c11.77,18.61,19.1,39.95,25.82,60.79c7.62,23.65,13.67,47.8,18.08,72.25c4.44,24.59,7.23,49.47,8.33,74.44
						c0.27,6.05,0.43,12.09,0.5,18.15C286.27,598.94,289.27,598.95,289.25,597.01L289.25,597.01z"/>
				</g>
			</g>
			<g>
				<g>
					<path class="st5" d="M278.89,585.25c-0.26-21.89-2.02-43.75-5.24-65.41c-3.21-21.6-7.88-42.98-13.98-63.94
						c-3.06-10.52-6.49-20.93-10.26-31.22c-3.14-8.56-6.56-17.04-10.73-25.16c-8.04-15.64-19.5-30.52-35.86-38.01
						c-15.59-7.13-34.14-7.36-50.01-0.93c-8.01,3.25-15.16,8.12-21.11,14.39c-6.15,6.47-10.98,14.07-15.21,21.89
						c-4.33,8-8.1,16.28-12.31,24.34c-4.28,8.19-9.12,16-14.99,23.15c-12.2,14.88-27.2,27.06-40.84,40.54
						c-6.55,6.47-12.93,13.24-18.23,20.79c-4.95,7.04-8.96,14.76-11.85,22.86c-5.43,15.21-6.98,32.85,0.4,47.7
						c1.77,3.56,4.05,6.84,6.7,9.8c1.29,1.44,3.4-0.68,2.12-2.12c-10.87-12.17-12.64-29.08-9.24-44.51
						c1.8-8.2,4.92-16.09,8.98-23.44c4.23-7.66,9.57-14.48,15.47-20.91c12.68-13.82,27.35-25.62,40.28-39.19
						c6.4-6.72,12.37-13.9,17.33-21.77c4.71-7.47,8.57-15.43,12.47-23.34c7.61-15.43,15.81-31.84,30.49-41.75
						c13.88-9.36,31.76-12.32,47.98-8.37c8.26,2.01,15.93,5.86,22.52,11.24c6.7,5.46,12.23,12.2,16.83,19.49
						c10.11,15.98,16.4,34.31,22.17,52.22c6.55,20.33,11.75,41.1,15.55,62.12c3.82,21.12,6.21,42.5,7.15,63.94
						c0.23,5.2,0.37,10.4,0.43,15.6C275.91,587.18,278.91,587.18,278.89,585.25L278.89,585.25z"/>
				</g>
			</g>
			<g>
				<g>
					<path class="st5" d="M257.34,564.97c-0.22-19.34-1.55-38.67-4.02-57.85c-2.45-19.08-5.99-38.03-10.68-56.69
						c-2.23-8.86-4.65-17.7-7.49-26.39c-2.56-7.81-5.53-15.56-9.51-22.77c-3.65-6.61-8.24-12.86-14.22-17.53
						c-5.69-4.44-12.61-7.09-19.83-7.41c-7.09-0.32-14.23,1.65-20.24,5.41c-5.7,3.57-10.11,8.54-13.45,14.33
						c-6.98,12.08-10.82,25.73-16.35,38.48c-2.62,6.04-5.62,11.72-9.61,16.97c-5.55,7.3-10.9,14.75-15.9,22.43
						c-7.93,12.17-15.01,24.96-20.08,38.6c-4.18,11.23-6.77,22.97-7.79,34.91c-1.04,12.23-0.47,24.53,0.63,36.74
						c0.29,3.28,0.63,6.56,0.98,9.83c0.21,1.9,3.21,1.92,3,0c-1.35-12.38-2.41-24.83-2.11-37.29c0.28-11.47,1.85-22.86,5.04-33.89
						c3.7-12.78,9.41-24.86,16.09-36.33c4.14-7.1,8.66-13.99,13.39-20.72c2.65-3.77,5.38-7.5,8.15-11.18
						c2.04-2.71,4.07-5.36,5.76-8.3c6.86-11.91,10.69-25.33,16.09-37.9c2.4-5.6,5.04-11.32,8.82-16.14
						c4.26-5.44,10.26-9.6,16.87-11.6c6.53-1.97,13.55-1.8,19.97,0.53c6.82,2.48,12.43,7.45,16.78,13.16
						c9.91,13.02,14.65,29.48,18.99,45.01c5.04,18.05,8.99,36.39,11.88,54.9c2.94,18.8,4.77,37.76,5.51,56.77
						c0.18,4.64,0.29,9.28,0.35,13.92C254.36,566.9,257.36,566.9,257.34,564.97L257.34,564.97z"/>
				</g>
			</g>
			<g>
				<g>
					<path class="st5" d="M247.84,569.06c-0.19-16.24-1.29-32.46-3.33-48.58c-2.02-15.96-4.93-31.81-8.79-47.43
						c-1.85-7.49-3.87-14.95-6.2-22.3c-2.08-6.56-4.46-13.06-7.6-19.19c-5.62-11-14.47-21.38-27.37-23.22
						c-5.95-0.85-11.97,0.13-17.38,2.72c-5.65,2.7-10.18,7.12-13.68,12.26c-7.47,10.98-10.53,24.23-16.26,36.08
						c-4.12,8.5-9.17,16.55-13.54,24.93c-4.04,7.73-7.7,15.67-10.56,23.91c-3.21,9.26-5.32,18.84-6.6,28.55
						c-1.67,12.7-1.92,25.56-1.48,38.34c0.13,3.85,0.33,7.69,0.58,11.53c0.12,1.92,3.13,1.93,3,0c-1.54-23.64-1.37-47.9,5.24-70.83
						c4.79-16.62,13.17-31.64,21.52-46.67c2.77-4.99,5.36-10,7.54-15.29c2.52-6.11,4.69-12.37,7.39-18.41
						c2.49-5.56,5.43-11.07,9.67-15.5c4.16-4.35,9.55-7.4,15.48-8.52c5.52-1.04,11.39-0.25,16.42,2.24
						c5.52,2.72,9.89,7.27,13.31,12.31c7.72,11.38,11.56,25.11,15.14,38.23c8.3,30.41,13.02,61.78,14.22,93.28
						c0.15,3.84,0.24,7.69,0.28,11.53C244.87,570.99,247.87,570.99,247.84,569.06L247.84,569.06z"/>
				</g>
			</g>
			<g>
				<g>
					<path class="st5" d="M232.5,572.78c-0.12-18.15-0.26-36.37-2.45-54.41c-1.08-8.93-2.64-17.8-4.95-26.5
						c-2.04-7.69-4.38-15.76-8.62-22.56c-3.54-5.66-8.94-10.74-16-10.78c-7.6-0.05-13.54,5.66-17.85,11.31
						c-5.1,6.67-9.36,14.11-13.2,21.57c-3.94,7.63-7.36,15.51-10.4,23.53c-6.14,16.2-10.69,32.95-14.73,49.77
						c-0.5,2.06-0.98,4.13-1.47,6.2c-0.44,1.88,2.45,2.68,2.89,0.8c3.78-16.22,7.91-32.38,13.35-48.13
						c5.41-15.64,12.17-30.88,21.09-44.85c3.85-6.03,8.27-13.11,15.1-16.09c3.04-1.33,6.47-1.47,9.57-0.26
						c2.93,1.15,5.35,3.4,7.26,5.85c4.56,5.84,6.87,13.26,8.94,20.26c2.47,8.34,4.21,16.89,5.44,25.5
						c2.47,17.32,2.83,34.87,2.98,52.34c0.02,2.15,0.03,4.3,0.05,6.45C229.51,574.71,232.51,574.72,232.5,572.78L232.5,572.78z"/>
				</g>
			</g>
			<g>
				<g>
					<path class="st5" d="M215.77,572.56c1.97-11.99,2.14-24.17,0.48-36.21c-0.82-5.97-2.07-11.91-3.83-17.68
						c-1.27-4.15-3.12-8.47-6.3-11.53c-3.25-3.12-7.83-4.29-12.09-2.63c-4.62,1.81-7.92,5.91-10.66,9.88
						c-6.54,9.47-12.29,19.5-17.26,29.88c-5.6,11.71-10.18,23.9-13.69,36.4c-0.52,1.86,2.37,2.66,2.89,0.8
						c5.86-20.92,14.78-40.93,26.46-59.25c3.82-6,11.32-19.72,20.38-14.38c3.49,2.06,5.48,6.16,6.78,9.83
						c1.8,5.08,2.95,10.47,3.85,15.77c2.14,12.64,2.16,25.67,0.09,38.31C212.56,573.65,215.45,574.46,215.77,572.56L215.77,572.56z"
						/>
				</g>
			</g>
			<g>
				<g>
					<path class="st5" d="M-35.67,467.12c24.25-17.07,46.76-36.64,66.91-58.42c4.98-5.38,9.81-10.89,14.49-16.54
						c4.86-5.86,9.62-11.85,13.74-18.26c7-10.9,13.03-24.55,8.9-37.62c-3.39-10.76-12.84-18.6-23.86-20.62
						c-14.35-2.63-28.8,2.99-42.72,5.69c-10.05,1.95-20.41,2.28-30.57,3.46c-8.84,1.03-17.65,2.43-26.26,4.73
						c-22.43,6-42.56,18.02-61.08,31.76c-3.06,2.27-6.08,4.59-9.07,6.94c-1.52,1.19,0.62,3.3,2.12,2.12
						c18.81-14.8,39.21-28.54,62.17-35.96c16.83-5.44,34.38-6.88,51.88-8.57c6.77-0.65,13.36-1.87,19.97-3.42
						c6.91-1.62,13.83-3.45,20.91-4.13c6.22-0.6,12.61-0.27,18.41,2.23c4.85,2.1,9.12,5.55,12.04,9.97
						c2.88,4.36,4.41,9.48,4.41,14.7c0,6.78-2.31,13.41-5.34,19.39c-3.4,6.71-7.77,12.9-12.4,18.81
						c-4.38,5.59-8.96,11.01-13.66,16.33c-19.15,21.66-40.6,41.3-63.81,58.53c-2.87,2.13-5.77,4.23-8.7,6.28
						C-38.75,465.63-37.26,468.23-35.67,467.12L-35.67,467.12z"/>
				</g>
			</g>
			<g>
				<g>
					<path class="st5" d="M-47.43,456.59c13.65-9.51,27.3-19.06,40-29.82c6.31-5.34,12.37-10.98,18-17.03
						c5.54-5.95,10.97-12.33,15.25-19.26c3.94-6.37,7.39-14.78,4.37-22.2c-2.74-6.73-9.57-9.76-16.37-10.72
						c-8.18-1.15-16.74-0.46-24.92,0.36c-9.02,0.9-17.97,2.45-26.8,4.49c-17.84,4.11-35.18,10.13-52.26,16.68
						c-2.11,0.81-4.23,1.63-6.33,2.45c-1.78,0.7-1,3.6,0.8,2.89c16.46-6.44,33.1-12.53,50.2-17.05c16.89-4.47,34.28-7.4,51.79-7.33
						c6.22,0.03,13.69,0.63,18.38,5.25c5.65,5.56,3.7,13.95,0.5,20.24c-3.57,7-8.83,13.27-14.02,19.11
						c-5.25,5.91-10.92,11.44-16.85,16.67c-12.08,10.65-25.18,20.05-38.36,29.27c-1.63,1.14-3.26,2.28-4.89,3.41
						C-50.52,455.09-49.02,457.69-47.43,456.59L-47.43,456.59z"/>
				</g>
			</g>
			<g>
				<g>
					<path class="st5" d="M-56.36,442.48c9.8-4.6,18.94-10.54,27.16-17.59c4-3.44,7.78-7.14,11.29-11.08
						c3.52-3.95,7.06-8.12,8.92-13.15c1.69-4.58,1.3-9.88-2.42-13.37c-3.26-3.05-7.91-3.95-12.22-4.24
						c-5.65-0.38-11.41-0.02-17.05,0.33c-6.13,0.38-12.25,1.03-18.33,1.91c-13.63,1.97-27.05,5.22-40.08,9.67
						c-1.82,0.62-1.04,3.52,0.8,2.89c21.97-7.5,45.07-11.55,68.29-11.88c4.41-0.06,9.09-0.2,13.26,1.47
						c4.14,1.65,6.46,5.52,5.56,9.97c-0.99,4.91-4.3,9.01-7.48,12.71c-3.3,3.84-6.86,7.47-10.63,10.86
						c-8.54,7.67-18.2,14.03-28.59,18.91C-59.62,440.71-58.1,443.3-56.36,442.48L-56.36,442.48z"/>
				</g>
			</g>
			<g>
				<g>
					<path class="st5" d="M776.86,93.86c-28.05,6.2-55,17.16-79.48,32.19c-24.35,14.95-46.31,33.87-64.47,55.93
						c-17.86,21.7-31.67,48.42-55.81,64.09c-26.6,17.26-60.05,14.65-89.56,7.74c-32.29-7.57-63.98-20.7-97.69-19.71
						c-26.3,0.77-51.59,11.02-72.17,27.19c-21.11,16.59-37.04,39.38-45.08,65.02c-8.77,27.95-8.47,58.38-0.75,86.54
						c7.62,27.77,22.62,52.96,42.72,73.5c19.52,19.95,43.41,35.4,69.24,45.86c6.35,2.57,12.82,4.82,19.38,6.78
						c1.85,0.55,2.65-2.34,0.8-2.89c-26.72-7.98-51.98-21.13-73.41-39.04c-21.71-18.15-39.43-41.17-49.96-67.52
						c-10.86-27.15-14.53-57.42-9.15-86.25c5.05-27.08,18.27-51.88,38.13-70.99c18.9-18.19,43.37-30.99,69.52-34.36
						c32.71-4.21,64.51,7.28,95.6,15.69c28.22,7.64,59.63,13.3,87.95,2.96c26.84-9.8,43.34-33.4,59.47-55.58
						c16.88-23.22,36.34-43.94,59.61-60.88c23-16.75,48.75-29.75,75.95-38.12c6.58-2.02,13.24-3.77,19.96-5.25
						C779.54,96.34,778.74,93.45,776.86,93.86L776.86,93.86z"/>
				</g>
			</g>
			<g>
				<g>
					<path class="st5" d="M405.06,522.8c-21.43-4.39-41.19-14.88-57.72-29.1c-17.25-14.84-31.09-33.49-40.84-54.02
						c-10.02-21.11-15.68-44.37-15.93-67.77c-0.12-11.8,1.13-23.61,4.32-34.99c3.03-10.81,7.8-21.48,15.33-29.93
						c7.64-8.58,18.08-14.27,29.64-15.06c12.54-0.86,24.82,3.55,35.61,9.61c22.89,12.85,39.23,33.73,59.1,50.39
						c9.29,7.79,19.43,14.82,30.9,18.96c11.9,4.29,24.34,4.39,36.72,2.43c24.14-3.81,50.81-15.85,74.59-4.21
						c20.36,9.97,31.47,32.73,35.39,54.1c5.15,28.14-2.37,56.99-11.38,83.53c-2.32,6.83-4.79,13.61-7.26,20.39
						c-0.66,1.82,2.23,2.6,2.89,0.8c10.37-28.4,20.89-57.76,20.36-88.42c-0.4-22.79-8.13-47.35-24.94-63.42
						c-8.37-8.01-18.8-13.04-30.32-14.43c-13.04-1.57-26.16,1.37-38.8,4.29c-12.87,2.98-25.97,6.32-39.3,5.59
						c-12.58-0.69-24.26-5.7-34.65-12.61c-21.91-14.58-37.89-36.11-58.99-51.67c-19.81-14.61-47-25.94-70.22-11.97
						c-19.98,12.02-28.42,36.84-31.06,58.81c-2.84,23.71,0.65,48.26,8.62,70.69c7.84,22.04,20.15,42.54,36.17,59.61
						c15.34,16.33,34.23,29.53,55.43,36.99c5.08,1.79,10.27,3.22,15.54,4.3C406.15,526.08,406.95,523.19,405.06,522.8L405.06,522.8z
						"/>
				</g>
			</g>
			<g>
				<g>
					<path class="st5" d="M424.6,512.93c-18.21-5.35-35.24-14.47-49.94-26.46c-14.6-11.9-26.98-26.52-36.16-42.97
						c-8.73-15.65-15.22-33.28-15.62-51.35c-0.34-15.46,3.59-33.31,16.89-42.85c17.97-12.88,41.22-4.09,57.77,6.81
						c9.06,5.96,17.5,12.82,26.63,18.68c8.71,5.6,18.06,10.04,28.26,12.1c19.42,3.91,39.35,0.61,58.76-1.62
						c18.4-2.11,38.38-3.95,55.73,4.02c17.89,8.21,28.76,25.47,33.02,44.21c5.12,22.52,0.24,45.73-6.2,67.45
						c-1.72,5.79-3.56,11.55-5.41,17.3c-0.59,1.84,2.3,2.63,2.89,0.8c7.49-23.26,15.33-47.53,13.65-72.31
						c-1.31-19.25-8.65-39.23-23.71-51.95c-7.33-6.2-16.19-10.31-25.54-12.36c-9.43-2.07-19.17-2.21-28.76-1.61
						c-20.16,1.24-40.17,5.69-60.44,4.75c-10.16-0.47-20.15-2.54-29.37-6.94c-10.05-4.79-18.97-11.57-27.95-18.08
						c-9.02-6.54-18.23-12.77-28.72-16.71c-10-3.76-21.23-5.46-31.62-2.27c-8.13,2.49-15.02,7.75-19.8,14.74
						c-4.65,6.81-7.2,14.91-8.33,23.02c-2.54,18.14,1.67,36.08,8.86,52.69c7.68,17.76,19,33.93,32.83,47.45
						c13.84,13.53,30.23,24.42,48.17,31.71c4.36,1.77,8.81,3.32,13.32,4.65C425.66,516.36,426.45,513.47,424.6,512.93L424.6,512.93z
						"/>
				</g>
			</g>
			<g>
				<g>
					<path class="st5" d="M362.19,346.88c-10.03-0.35-19.64,4.52-25.29,12.82c-2.92,4.28-4.31,9.09-5.04,14.17
						c-0.79,5.54-1.1,11.13-0.86,16.73c0.93,22.24,10.01,44.91,26.59,60.1c8.14,7.46,18.39,13.22,29.48,14.52
						c10.83,1.26,21.33-2.87,28.42-11.15c7.15-8.34,10.64-19.23,11.61-30.04c1.06-11.78-0.96-23.79-5.6-34.65
						c-9.04-21.17-28.63-36.82-51.17-41.35C367.64,347.49,364.92,347.11,362.19,346.88c-1.92-0.16-1.91,2.84,0,3
						c21.5,1.83,41.69,14.34,52.66,32.96c5.66,9.61,8.93,20.62,9.45,31.77c0.49,10.5-1.29,21.4-6.39,30.69
						c-4.87,8.86-12.99,15.81-23.3,16.97c-10.43,1.17-20.77-3.07-29.14-9.01c-17.27-12.27-27.65-33.11-30.66-53.73
						c-0.77-5.27-1.03-10.62-0.84-15.94c0.18-5.1,0.58-10.49,2.11-15.39c2.76-8.84,10.25-15.68,19.27-17.71
						c2.25-0.51,4.54-0.68,6.84-0.6C364.12,349.95,364.12,346.95,362.19,346.88z"/>
				</g>
			</g>
			<g>
				<g>
					<path class="st5" d="M366.65,425.05c5.52,1.59,11.46,0.28,15.78-3.52c2.26-1.98,3.67-4.49,4.81-7.24
						c1.25-3.03,2.2-6.18,2.83-9.4c2.41-12.44,0.34-26.45-7.33-36.78c-3.51-4.73-8.21-8.84-13.91-10.64
						c-5.76-1.82-11.88-0.62-16.66,3.01c-10.32,7.82-13.62,22.67-11.33,34.88C343.4,409.06,353.58,420.45,366.65,425.05
						c1.82,0.64,2.61-2.26,0.8-2.89c-10.24-3.6-18.75-11.95-22.31-22.23c-3.8-10.98-2.41-24.74,5.35-33.76
						c3.46-4.02,8.23-6.86,13.67-6.54c5.37,0.31,10.16,3.54,13.74,7.35c7.9,8.41,10.88,20.76,9.97,32.04
						c-0.26,3.27-0.88,6.51-1.82,9.66c-0.87,2.94-1.91,6.09-3.75,8.59c-3.41,4.61-9.41,6.46-14.85,4.89
						C365.59,421.62,364.8,424.51,366.65,425.05z"/>
				</g>
			</g>
			<g>
				<g>
					<path class="st5" d="M365.2,404.08c3.45,0.96,7.11,0.23,9.87-2.07c2.93-2.44,4.2-6.55,4.95-10.15
						c1.61-7.74,0.4-16.54-4.37-23.02c-2.19-2.97-5.08-5.52-8.62-6.71c-3.55-1.19-7.44-0.56-10.47,1.62
						c-6.58,4.74-8.75,13.91-7.45,21.57C350.57,394,356.99,401.16,365.2,404.08c1.82,0.65,2.61-2.25,0.8-2.89
						c-5.97-2.12-10.96-6.97-13.06-12.97c-2.23-6.37-1.52-14.34,2.87-19.67c1.95-2.37,4.66-4.12,7.82-4.01
						c3.15,0.11,5.96,2.01,8.06,4.23c4.62,4.89,6.38,12.08,5.93,18.65c-0.25,3.57-1.07,7.9-3.17,10.89
						c-1.91,2.71-5.32,3.77-8.46,2.89C364.14,400.66,363.34,403.56,365.2,404.08z"/>
				</g>
			</g>
			<g>
				<g>
					<path class="st5" d="M403.08,279.8c-1.14,2.76-0.94,5.94-0.5,8.83c0.55,3.66,1.73,7.2,3.19,10.59
						c3.21,7.48,8.4,13.81,14.43,19.22c6.34,5.69,13.45,10.61,20.72,15.03c7.21,4.38,14.75,8.19,22.54,11.41
						c15.16,6.27,31.34,10.19,47.73,11.2c7.85,0.48,15.74,0.29,23.55-0.66c6.97-0.85,14.43-1.98,20.39-5.98
						c6.04-4.05,9.09-10.83,8.4-18.05c-0.75-7.87-4.84-15.11-9.57-21.27c-7.49-9.76-17.41-17.38-27.98-23.54
						c-10.69-6.23-22.21-11.07-33.99-14.8c-11.54-3.65-23.44-6.24-35.48-7.5c-10.22-1.07-20.75-1.24-30.87,0.79
						c-7.26,1.45-15.13,4.28-19.89,10.27c-1.01,1.26-1.86,2.62-2.51,4.1c-0.77,1.75,1.82,3.28,2.59,1.51
						c2.67-6.1,8.65-9.55,14.92-11.54c8.74-2.77,18.15-3.16,27.24-2.77c11.3,0.49,22.53,2.41,33.47,5.24
						c11.53,2.98,22.82,7.01,33.52,12.23c10.01,4.89,19.67,10.82,27.91,18.37c5.27,4.83,9.99,10.38,13.46,16.66
						c3.39,6.14,5.83,13.72,3.16,20.58c-2.47,6.35-8.95,9.44-15.17,11.02c-7.06,1.79-14.53,2.39-21.79,2.56
						c-15.56,0.37-31.11-2.08-45.92-6.79c-15.62-4.97-30.4-12.46-43.78-21.92c-6.63-4.69-13.05-9.86-18.14-16.24
						c-4.55-5.7-7.86-12.62-9.11-19.83c-0.45-2.59-0.63-5.43,0.39-7.91C406.71,278.81,403.81,278.03,403.08,279.8z"/>
				</g>
			</g>
			<g>
				<g>
					<path class="st5" d="M442.75,290.31c-1.23,4.18,0.75,9.14,2.45,12.91c2.25,4.98,5.62,9.32,9.56,13.09
						c8.25,7.89,18.37,14.25,28.7,19.03c9.74,4.5,20.11,7.6,30.8,8.71c4.96,0.52,9.97,0.59,14.94,0.13c4.51-0.42,9.42-1,13.33-3.48
						c4.02-2.55,5.96-6.99,5.56-11.69c-0.44-5.18-2.97-10.03-5.93-14.2c-5.07-7.14-11.81-12.88-19.14-17.6
						c-13.75-8.84-29.92-14.76-46.11-16.99c-6.68-0.92-13.58-1.27-20.24,0.03c-4.74,0.93-9.67,2.92-12.47,7.05
						C443.56,288.22,443.09,289.25,442.75,290.31c-0.6,1.84,2.29,2.63,2.89,0.8c0.56-1.71,1.62-3.17,3.15-4.42
						c1.46-1.19,3.56-2.15,5.5-2.76c5.54-1.73,11.54-1.75,17.27-1.31c15.05,1.18,30.12,6.13,43.36,13.28
						c6.62,3.57,12.93,7.83,18.33,13.09c3.57,3.48,6.78,7.42,9.14,11.84c2.06,3.86,3.73,8.7,2.15,13.02
						c-1.49,4.06-5.77,5.71-9.68,6.52c-4.48,0.92-9.15,1.17-13.72,1.09c-9.91-0.17-19.72-2.3-28.99-5.74
						c-10.13-3.76-19.64-9.17-28.26-15.66c-8.11-6.1-15.54-13.69-18-23.85c-0.4-1.64-0.73-3.46-0.24-5.11
						C446.18,289.25,443.29,288.46,442.75,290.31z"/>
				</g>
			</g>
			<g>
				<g>
					<path class="st5" d="M781.29,126.92c-36.66,14.25-71.59,32.83-103.81,55.4c-29.7,20.81-59.88,46.47-68.61,83.36
						c-3.99,16.85-2.41,33.88,4.75,49.63c6.49,14.28,16.24,26.72,24.95,39.67c8.56,12.74,16.65,26.59,18.3,42.15
						c2,18.81-4.7,37.07-7.08,55.52c-1.16,8.97-1.25,18.16,1.1,26.96c2.14,7.99,6.22,15.32,11.37,21.74
						c11.52,14.36,28.06,23.25,44.88,29.95c4.54,1.81,9.14,3.48,13.76,5.1c1.82,0.64,2.61-2.26,0.8-2.89
						c-17.66-6.21-35.73-13.3-49.71-26.17c-6.12-5.63-11.36-12.25-14.97-19.76c-3.84-8.02-5.28-16.79-5.01-25.64
						c0.57-18.41,7.34-36,8.15-54.39c0.69-15.79-4.48-30.3-12.42-43.74c-7.78-13.16-17.44-25.1-25.28-38.23
						c-8.44-14.13-13.76-29.34-12.68-46c2.43-37.73,30.68-66.27,59.36-87.55c30.76-22.82,64.38-41.91,99.66-56.82
						c4.41-1.86,8.84-3.65,13.3-5.39C783.86,129.12,783.09,126.22,781.29,126.92L781.29,126.92z"/>
				</g>
			</g>
			<g>
				<g>
					<path class="st5" d="M778.77,148.4c-13.54,6.22-27.09,12.47-40.21,19.55c-13.02,7.03-25.61,14.91-37.09,24.27
						c-10.98,8.96-20.74,19.32-28.54,31.17c-7.61,11.55-13.4,24.5-16.07,38.11c-2.62,13.36-2.14,27.22,1.95,40.24
						c3.97,12.67,11,24.26,19.96,34.02c9.38,10.22,20.92,18.3,33.54,24.02c13.51,6.13,28.05,9.66,42.8,11.03
						c13.05,1.21,26.39,0.86,39.16-2.31c11.65-2.89,23.09-8.31,31.25-17.33c1.97-2.17,3.72-4.53,5.25-7.03
						c1.01-1.65-1.58-3.16-2.59-1.51c-6.15,10.05-16.17,16.8-27.13,20.7c-11.59,4.12-23.99,5.41-36.23,5.06
						c-14.41-0.41-28.79-2.86-42.38-7.73c-13.02-4.67-25.27-11.66-35.5-21.01c-9.52-8.7-17.33-19.29-22.44-31.16
						c-5.23-12.13-7.2-25.4-5.88-38.54c1.34-13.36,5.98-26.28,12.54-37.93c6.72-11.92,15.47-22.59,25.58-31.79
						c10.7-9.75,22.7-17.94,35.22-25.18c12.53-7.25,25.58-13.55,38.7-19.64c3.21-1.49,6.43-2.97,9.64-4.45
						C782.03,150.19,780.51,147.6,778.77,148.4L778.77,148.4z"/>
				</g>
			</g>
			<g>
				<g>
					<path class="st5" d="M774.11,169.95c-15.81,9.12-31.11,19.5-44.11,32.39c-12.5,12.4-22.85,27.27-28,44.24
						c-4.86,16.02-5.43,33.84,0.25,49.73c2.82,7.9,7.16,15.19,12.92,21.3c6.16,6.54,13.78,11.66,21.98,15.29
						c18.76,8.29,39.71,8.67,59.67,5.29c2.68-0.45,5.35-0.98,8.01-1.55c1.89-0.41,1.09-3.3-0.8-2.89
						c-19.62,4.24-40.51,5.44-59.74-1.23c-16.22-5.63-30.23-16.79-37.39-32.61c-6.7-14.79-7.12-31.98-3.35-47.59
						c4.03-16.68,13.17-31.47,24.8-43.95c12.08-12.96,26.58-23.41,41.7-32.52c1.85-1.11,3.71-2.21,5.58-3.29
						C777.3,171.58,775.79,168.99,774.11,169.95L774.11,169.95z"/>
				</g>
			</g>
			<g>
				<g>
					<path class="st5" d="M761.37,193.96c-18.84,12.63-38.25,29.46-43.6,52.52c-5.32,22.96,6.13,47.99,27.47,58.32
						c12.01,5.81,26.13,7.03,38.88,2.98c1.83-0.58,1.05-3.48-0.8-2.89c-10.81,3.44-22.6,2.9-33.16-1.19
						c-10.49-4.07-19.14-11.81-24.54-21.66c-5.26-9.59-7.41-20.95-5.56-31.77c1.85-10.8,7.18-20.6,14.15-28.96
						c8.13-9.75,18.17-17.73,28.67-24.76C764.48,195.48,762.98,192.88,761.37,193.96L761.37,193.96z"/>
				</g>
			</g>
			<g>
				<g>
					<path class="st5" d="M757.4,211.2c-13.56,7.16-22.46,21.64-23.73,36.81c-1.3,15.61,6.52,30.39,19.17,39.33
						c7.08,5,15.55,7.99,24.24,8.25c1.93,0.06,1.93-2.94,0-3c-14.41-0.44-27.98-9.06-35.21-21.43c-7.33-12.55-6.79-28.06,0.2-40.65
						c3.92-7.05,9.7-12.95,16.84-16.73C760.62,212.89,759.11,210.3,757.4,211.2L757.4,211.2z"/>
				</g>
			</g>
			<g>
				<g>
					<path class="st5" d="M764.47,395.59c-16.03-4.55-33.58-2.74-48.47,4.67c-14.79,7.35-26.1,20.36-32.01,35.72
						c-5.95,15.44-5.77,32.52,0.1,47.96c5.95,15.66,16.86,29.03,30.33,38.88c14.39,10.52,31.43,17.06,48.78,20.74
						c2.16,0.46,4.32,0.87,6.49,1.24c1.89,0.33,2.7-2.56,0.8-2.89c-16.92-2.92-33.59-8.29-48.23-17.41
						c-13.79-8.59-25.41-20.58-32.6-35.22c-7.02-14.29-9.1-30.58-4.9-46.02c4.12-15.15,13.74-28.77,27.05-37.19
						c13.51-8.54,30.33-11.86,46.07-8.94c1.95,0.36,3.88,0.82,5.79,1.37C765.54,399.01,766.33,396.11,764.47,395.59L764.47,395.59z"
						/>
				</g>
			</g>
			<g>
				<g>
					<path class="st5" d="M763.32,419.71c-13.59-5.62-29.43-7.35-43.45-2.22c-11.58,4.24-21.56,13.12-26.13,24.69
						c-5.15,13.03-1.77,27.54,5.04,39.29c6.84,11.78,17.15,21.54,28.69,28.67c11.47,7.08,24.47,11.59,37.86,13.09
						c1.64,0.18,3.28,0.32,4.93,0.41c1.93,0.11,1.92-2.89,0-3c-25.48-1.41-50.83-14.6-65.62-35.59
						c-7.53-10.69-12.64-24.26-9.48-37.4c2.74-11.42,11.41-20.66,21.83-25.69c14.27-6.88,31.25-5.24,45.53,0.66
						C764.31,423.34,765.09,420.44,763.32,419.71L763.32,419.71z"/>
				</g>
			</g>
			<g>
				<g>
					<path class="st5" d="M766.19,437.43c-9.84-4.42-20.92-7.32-31.64-4.55c-4.55,1.18-8.87,3.34-12.37,6.48
						c-3.63,3.26-6.11,7.58-7.49,12.24c-2.84,9.57-1.53,20.38,2,29.6c3.54,9.26,9.52,17.44,17.4,23.46
						c8.95,6.84,20.01,10.72,31.27,11.03c1.93,0.05,1.93-2.95,0-3c-18.77-0.51-36-11.64-44.15-28.54
						c-3.96-8.22-5.93-17.86-4.65-26.96c0.64-4.54,2.16-9.07,4.98-12.74c2.66-3.47,6.42-6.06,10.49-7.61
						c10.78-4.13,22.49-1.39,32.66,3.18C766.42,440.81,767.95,438.22,766.19,437.43L766.19,437.43z"/>
				</g>
			</g>
			<g>
				<g>
					<path class="st5" d="M572.91,525.3c3.91-16.15,1.48-33.58-6.46-48.16c-7.92-14.53-21.36-25.4-36.97-30.72
						c-15.67-5.34-32.64-4.49-47.85,1.92c-15.39,6.49-28.34,17.9-37.65,31.67c-10.09,14.93-16,32.4-18.99,50.08
						c-0.37,2.18-0.69,4.36-0.98,6.55c-0.11,0.81,0.77,1.49,1.5,1.5c0.9,0.01,1.39-0.7,1.5-1.5c2.27-17.12,7.13-34.14,15.82-49.15
						c8.1-13.99,19.65-25.94,33.99-33.57c13.95-7.42,30.03-10.06,45.5-6.44c15.33,3.58,29.36,12.72,38.26,25.79
						c8.93,13.13,12.86,29.68,10.58,45.42c-0.28,1.95-0.67,3.89-1.13,5.8C569.56,526.38,572.46,527.18,572.91,525.3L572.91,525.3z"
						/>
				</g>
			</g>
			<g>
				<g>
					<path class="st5" d="M548.76,525.1c5.08-13.8,6.22-29.7,0.54-43.52c-4.7-11.43-13.98-21.14-25.77-25.22
						c-13.12-4.54-27.36-0.71-38.76,6.47c-11.56,7.28-20.98,17.96-27.67,29.8c-6.64,11.73-10.69,24.91-11.67,38.36
						c-0.12,1.66-0.19,3.33-0.22,5c-0.03,1.93,2.97,1.93,3,0c0.41-25.54,12.56-51.32,32.94-67c10.24-7.87,23.53-13.52,36.64-11.05
						c11.66,2.19,21.39,10.48,26.89,20.8c7.47,14,6.54,31.02,1.19,45.56C545.2,526.12,548.1,526.9,548.76,525.1L548.76,525.1z"/>
				</g>
			</g>
			<g>
				<g>
					<path class="st5" d="M531.3,528.29c4-9.92,6.37-21.12,3.14-31.61c-1.38-4.48-3.71-8.73-7.01-12.08
						c-3.47-3.52-7.98-5.84-12.77-6.99c-9.55-2.29-19.99-0.61-28.94,3.15c-9.14,3.85-17.11,10.14-22.87,18.23
						c-6.55,9.2-10.04,20.5-9.91,31.78c0.02,1.93,3.02,1.93,3,0c-0.23-18.93,10.33-36.7,27.11-45.46c8.12-4.24,17.61-6.45,26.78-5.5
						c4.57,0.47,9.11,1.93,12.86,4.64c3.53,2.56,6.2,6.28,7.87,10.28c4.46,10.65,2,22.45-2.16,32.77
						C527.69,529.28,530.59,530.06,531.3,528.29L531.3,528.29z"/>
				</g>
			</g>
			<g>
				<g>
					<path class="st5" d="M486.71,289.14c-7.02-4.41-16.58-4.13-23.68-0.02c-3.06,1.77-5.74,4.4-6.92,7.8
						c-1.26,3.64-0.26,7.63,1.67,10.84c4.6,7.66,14.11,12.74,22.97,12.84c6.46,0.07,13.21-3.36,16.04-9.36
						c1.59-3.36,1.74-7.18,0.39-10.65C495.25,295.63,491.09,291.98,486.71,289.14c-1.62-1.05-3.13,1.54-1.51,2.59
						c5.42,3.52,11.62,9.48,9.52,16.63c-1.48,5.05-6.59,8.48-11.64,9.14c-7.72,1-16.14-3.13-21.06-8.94
						c-2.06-2.44-3.69-5.58-3.45-8.85c0.21-2.83,2.09-5.24,4.29-6.89c6.26-4.69,15.69-5.24,22.33-1.08
						C486.84,292.76,488.35,290.17,486.71,289.14z"/>
				</g>
			</g>
			<g>
				<g>
					<path class="st5" d="M320.26,65.93c4.5-5.27,5.7-13.19,6.35-19.84c0.83-8.54-0.04-17.05-2.42-25.29
						c-2.5-8.64-6.4-16.89-10.72-24.76c-4.03-7.35-8.61-14.39-13.74-21.03c-9.59-12.4-21.16-23.33-34.49-31.64
						c-12.32-7.69-26.63-13.6-41.15-15.23c-7.61-0.86-15.43,0.57-21.14,6c-5.59,5.32-8.17,12.93-9.08,20.42
						c-1.8,14.75,2.15,30.05,8.3,43.38c5.85,12.7,14.05,24.29,23.43,34.62c9.31,10.26,19.95,19.42,31.62,26.9
						c9.8,6.28,20.64,11.69,32.13,14c8.74,1.76,18.59,1.73,26.24-3.43C317.31,68.86,318.89,67.49,320.26,65.93
						c1.27-1.44-0.84-3.57-2.12-2.12c-5.53,6.26-13.7,8.16-21.79,7.6c-10.48-0.72-20.65-4.92-29.78-9.9
						c-11.38-6.21-21.79-14.17-31.12-23.14c-9.77-9.39-18.46-20-25.32-31.71c-6.93-11.82-11.98-24.92-13.31-38.63
						c-1.33-13.73,1.28-32.99,17.41-36.59c6.79-1.52,14.01,0.11,20.6,1.86c6.84,1.82,13.47,4.35,19.79,7.52
						c13.21,6.63,24.96,15.9,34.95,26.75c11,11.95,19.89,25.82,26.65,40.57c3.73,8.15,6.67,16.83,7.5,25.8
						c0.68,7.37,0.09,15.13-1.98,22.25c-0.77,2.66-1.77,5.48-3.6,7.61C316.89,65.27,319.01,67.4,320.26,65.93z"/>
				</g>
			</g>
			<g>
				<g>
					<path class="st5" d="M288.62,38.66c2.62-3.67,3.14-8.93,3.44-13.29c0.39-5.74-0.17-11.47-1.64-17.04
						c-1.57-5.93-4.05-11.61-6.8-17.08c-2.61-5.19-5.58-10.2-8.94-14.93c-6.02-8.49-13.27-16.13-21.83-22.09
						c-7.68-5.34-16.73-9.52-26.07-10.76c-4.88-0.65-9.87,0.22-13.47,3.81c-3.68,3.66-5.24,8.88-5.81,13.91
						c-1.16,10.13,1.36,20.72,5.26,30.03c7.3,17.39,20.24,32.87,35.66,43.66c6.15,4.3,13.07,8.11,20.47,9.68
						c5.78,1.22,12.09,0.95,16.87-2.87C286.85,40.81,287.77,39.78,288.62,38.66c1.16-1.55-1.44-3.04-2.59-1.51
						c-7.59,10.12-23.15,3.2-31.66-1.95c-14.89-9.03-27.4-22.86-35.56-38.19c-4.41-8.28-7.54-17.36-8.37-26.74
						c-0.75-8.5,0.31-22.09,10.93-23.85c4.24-0.7,8.8,0.58,12.82,1.84c4.18,1.31,8.18,3.11,11.97,5.28
						c8.37,4.79,15.6,11.36,21.72,18.78c6.93,8.41,12.56,18.07,16.7,28.14c4.09,9.95,6.06,21,3.51,31.62
						c-0.43,1.78-0.98,3.56-2.06,5.06C284.9,38.72,287.5,40.22,288.62,38.66z"/>
				</g>
			</g>
			<g>
				<g>
					<path class="st5" d="M247.18,23.32c4.46,7.71,13.85,11.13,22.37,8.98c3.96-1,7.57-3.24,9.97-6.57
						c2.55-3.53,3.38-8.09,3.06-12.36c-0.67-8.95-5.86-18.44-14.03-22.6c-6.73-3.43-14.76-1.76-20.09,3.48
						c-3.23,3.17-5.11,7.39-5.59,11.87C242.21,12.14,244.28,18.13,247.18,23.32c0.94,1.69,3.53,0.17,2.59-1.51
						c-4.03-7.22-6.1-16.52-0.75-23.66c3.53-4.72,10-7.49,15.78-5.7c13.48,4.17,22.23,29.23,6.55,36.1
						c-7.69,3.37-17.35,0.6-21.58-6.74C248.8,20.14,246.21,21.65,247.18,23.32z"/>
				</g>
			</g>
			<g>
				<g>
					<path class="st5" d="M583.33,514.95c1.45-2.8,2.4-5.94,3.24-8.96c2.32-8.37,3.37-17.11,3.62-25.78
						c0.18-6.41-0.1-12.83-0.75-19.21c-0.36-3.55-0.84-7.1-1.42-10.62c-0.55-3.34-1.11-6.7-2.12-9.94
						c-3.47-11.11-11.08-20.35-20.27-27.29c-9.32-7.03-20.44-11.87-31.88-14.14c-12.07-2.4-24.64-1.46-36.29,2.49
						c-11.94,4.05-22.88,11.13-31.29,20.54c-8.33,9.32-13.79,20.9-22.59,29.82c-4.39,4.45-9.45,7.44-15.24,9.7
						c-5.46,2.13-11.21,4.02-15.71,7.94c-4.8,4.19-7,10.39-7.01,16.66c-0.01,7.05,2.65,13.68,6.19,19.67
						c1.79,3.03,3.8,5.92,5.81,8.81c1.1,1.57,3.7,0.08,2.59-1.51c-4.01-5.75-8.14-11.65-10.25-18.41
						c-1.83-5.86-2.08-12.71,0.89-18.25c2.81-5.26,8.15-8.03,13.48-10.16c5.46-2.17,11.04-4.03,15.83-7.54
						c9.79-7.17,15.7-18.11,22.68-27.76c7.16-9.91,16.31-17.94,27.34-23.3c10.86-5.27,23.1-7.75,35.16-6.85
						c11.32,0.85,22.54,4.71,32.26,10.51c9.48,5.66,17.87,13.54,22.85,23.5c2.79,5.58,3.95,11.56,4.9,17.68
						c1.03,6.65,1.67,13.36,1.84,20.09c0.25,9.47-0.39,19.02-2.45,28.28c-0.62,2.77-1.36,5.52-2.28,8.2
						c-0.3,0.87-0.61,1.73-0.95,2.58c-0.05,0.14-0.11,0.27-0.17,0.41c-0.19,0.46,0.08-0.18-0.06,0.14c-0.1,0.23-0.2,0.46-0.31,0.69
						c-0.07,0.16-0.15,0.32-0.23,0.48C579.85,515.15,582.44,516.67,583.33,514.95L583.33,514.95z"/>
				</g>
			</g>
			<g>
				<g>
					<path class="st5" d="M-30.09,206.26c15.8,27.37,37.61,51.03,63.23,69.49c25.64,18.48,55.15,31.76,86.11,38.23
						c15.46,3.23,31.75,5.3,47.56,4.6c7.8-0.35,15.67-1.54,22.93-4.5c6.6-2.69,12.16-6.86,17.08-11.96
						c17.37-17.99,24.7-43.18,29.25-67.15c2.26-11.93,3.84-23.97,5.63-35.98c1.46-9.76,2.89-19.71,6.04-29.1
						c2.16-6.46,5.23-12.21,11.39-15.52c6.26-3.36,13.45-4.83,20.41-5.94c16.84-2.66,34.09-2.94,50.56-7.73
						c8.16-2.37,16.03-5.89,22.74-11.18c7.34-5.79,12.72-13.51,16.22-22.14c4.77-11.76,6.08-24.78,5.99-37.36
						c-0.13-16.98-3.63-33.8-9.49-49.71c-12.01-32.6-32.88-61.14-54.77-87.76c-5.39-6.56-10.89-13.03-16.43-19.47
						c-1.26-1.47-3.37,0.66-2.12,2.12c22.52,26.2,44.89,53.19,60.77,84.07c14.54,28.29,23.23,61.14,17.28,92.96
						c-1.85,9.91-5.42,19.72-11.85,27.6c-5.35,6.56-12.34,11.43-20.09,14.77c-15.58,6.72-32.97,7.66-49.61,9.59
						c-7.6,0.88-15.29,1.86-22.62,4.11c-6.18,1.9-12.29,4.66-16.15,10.05c-4.63,6.46-6.58,14.79-8.17,22.44
						c-2.22,10.66-3.56,21.49-5.14,32.25c-3.54,24.05-7.67,49.14-19.85,70.55c-6.21,10.92-14.91,21.72-26.58,27.01
						c-14.56,6.6-31.64,5.52-47.13,3.95c-31.27-3.16-61.55-13.01-88.77-28.72c-27.05-15.61-50.99-36.76-69.39-62.02
						c-4.47-6.14-8.61-12.52-12.41-19.1C-28.47,203.08-31.06,204.59-30.09,206.26L-30.09,206.26z"/>
				</g>
			</g>
			<g>
				<g>
					<path class="st5" d="M-35.92,168.83c4,8.31,9.05,16.11,14.36,23.64c7.09,10.06,14.84,19.66,23.04,28.83
						c19.04,21.31,40.7,40.73,65.04,55.8c23.33,14.44,50.27,25.28,78.12,24.51c13.86-0.38,27.48-3.78,39.92-9.91
						c4.95-2.44,9.53-5.32,13.37-9.33c3.52-3.68,6.35-7.98,8.58-12.55c5.07-10.39,7.34-21.93,8.67-33.34
						c1.48-12.7,1.71-25.52,1.7-38.29c-0.01-12.4-0.34-24.81-0.02-37.21c0.24-9.48,0.58-19.42,3.6-28.5
						c1.02-3.06,2.45-6.13,4.76-8.44c2.25-2.24,5.12-3.89,7.98-5.21c7.05-3.26,14.93-4.66,22.55-5.8
						c18.21-2.73,36.87-3.37,54.61-8.71c8.53-2.57,16.78-6.3,23.7-11.97c7.25-5.94,12.42-13.93,15.38-22.79
						c4.03-12.1,4.15-25.28,2.83-37.85c-1.93-18.48-6.7-36.94-15.52-53.37c-4.43-8.25-9.93-15.9-16.45-22.62
						c-1.35-1.39-3.47,0.73-2.12,2.12c13.53,13.96,22.08,31.82,26.89,50.51c3.87,15.04,6.09,31.14,4.41,46.66
						c-1.08,9.95-4.16,19.87-10.34,27.86c-5.29,6.84-12.54,11.79-20.41,15.23c-16.77,7.34-35.63,8.54-53.57,10.68
						c-8.25,0.99-16.58,2.03-24.6,4.26c-6.35,1.76-13.46,4.41-17.99,9.44c-5.14,5.7-6.6,14.06-7.54,21.4
						c-1.4,10.93-1.32,22.04-1.27,33.04c0.13,24.77,1.52,50.36-4.14,74.68c-2.33,10.03-6.09,20.21-13.14,27.93
						c-3.7,4.06-8.11,6.92-13,9.36c-6.22,3.1-12.78,5.51-19.53,7.15c-26.71,6.49-54.42-0.06-78.63-11.95
						c-25.63-12.59-48.36-30.76-68.45-50.89c-16.71-16.74-32.3-35.21-44.52-55.52c-2.03-3.38-3.95-6.82-5.66-10.38
						C-34.17,165.58-36.76,167.1-35.92,168.83L-35.92,168.83z"/>
				</g>
			</g>
			<g>
				<g>
					<path class="st5" d="M-16.07,161.37c5.9,13.78,13.65,26.71,22.94,38.47c9.29,11.76,20.12,22.26,32.16,31.18
						c12.32,9.13,26.22,16.54,41.18,20.24c14.37,3.55,29.67,3.33,43.42-2.5c11.78-4.99,21.55-13.7,28.91-24.06
						c7.59-10.69,12.7-23.15,15.48-35.93c3.33-15.37,3-31.29,0.95-46.81c-2.29-17.39-6.7-34.38-11.07-51.34
						c-4.26-16.53-8.48-33.12-10.55-50.09c-2.01-16.42-2.12-33.29,1.87-49.43c0.97-3.91,2.18-7.76,3.61-11.53
						c0.69-1.81-2.21-2.59-2.89-0.8c-5.77,15.15-7.52,31.49-6.79,47.61c0.74,16.49,3.88,32.8,7.77,48.82
						c4.08,16.81,8.87,33.46,12.29,50.42c3.31,16.46,5.38,33.42,3.81,50.2c-1.2,12.82-4.8,25.53-10.74,36.97
						c-5.79,11.15-13.94,21.28-24.52,28.22c-11.72,7.69-25.63,10.64-39.52,9.3c-15.13-1.46-29.61-7.56-42.41-15.55
						c-12.54-7.83-23.87-17.69-33.75-28.66c-9.9-11-18.33-23.3-25-36.51c-1.62-3.2-3.13-6.45-4.54-9.74
						C-14.24,158.09-16.82,159.62-16.07,161.37L-16.07,161.37z"/>
				</g>
			</g>
			<g>
				<g>
					<path class="st5" d="M160.99-7.13c20.38,12.2,34.88,31.52,49.36,49.86c14.26,18.05,29.82,36.91,51.1,46.9
						c19.37,9.09,43.99,10.73,61.68-2.97c15.73-12.19,21.96-33.24,20.93-52.5c-1.28-23.97-13.57-45.73-26.02-65.61
						c-1.61-2.57-3.24-5.14-4.87-7.7c-1.03-1.62-3.63-0.12-2.59,1.51c12.73,19.98,26.09,40.91,29.77,64.77
						c2.85,18.47-1.23,39.6-14.68,53.27c-7.21,7.33-16.84,11.75-27.02,12.95c-10.6,1.25-21.39-0.59-31.29-4.44
						c-21.34-8.29-37.21-26.25-51.19-43.67C201.86,27.42,188.31,8.42,169.54-5.1c-2.28-1.64-4.62-3.18-7.03-4.62
						C160.85-10.71,159.34-8.12,160.99-7.13L160.99-7.13z"/>
				</g>
			</g>
			<g>
				<g>
					<path class="st5" d="M141.78,194.33c2.62-3.05,4.16-6.89,5.29-10.7c1.39-4.65,2.17-9.48,2.63-14.31
						c1.02-10.85-0.13-21.63-3.22-32.08c-3.2-10.85-8.14-21.2-13.58-31.09c-5.12-9.31-10.96-18.21-17.49-26.59
						c-12.08-15.51-26.66-29.16-43.4-39.53c-7.97-4.94-16.43-9.1-25.23-12.35c-8.48-3.13-17.46-5.65-26.47-6.6
						c-9.73-1.02-19.67,0.99-26.72,8.21c-6.7,6.86-9.72,16.34-10.72,25.69c-1.99,18.54,3.03,37.63,10.84,54.33
						c7.45,15.92,17.8,30.45,29.63,43.4c11.64,12.74,24.91,24.13,39.45,33.44c12.34,7.9,25.99,14.69,40.46,17.58
						c10.92,2.18,23.22,2.11,32.77-4.36C138.16,197.94,140.09,196.25,141.78,194.33c1.27-1.44-0.84-3.57-2.12-2.12
						c-7.01,7.96-17.41,10.4-27.69,9.72c-13.29-0.89-26.18-6.2-37.76-12.5c-14.35-7.82-27.49-17.84-39.27-29.14
						c-12.39-11.88-23.4-25.3-32.11-40.12c-8.76-14.91-15.14-31.4-16.89-48.7c-1.76-17.39,1.41-41.88,21.72-46.8
						c8.64-2.09,17.85-0.09,26.27,2.12c8.63,2.26,17,5.42,24.98,9.39c16.86,8.38,31.85,20.14,44.59,33.96
						c13.88,15.05,25.11,32.52,33.66,51.1c4.82,10.48,8.63,21.63,9.66,33.19c0.83,9.31,0.08,19.11-2.54,28.1
						c-0.99,3.39-2.28,6.98-4.62,9.7C138.41,193.67,140.52,195.8,141.78,194.33z"/>
				</g>
			</g>
			<g>
				<g>
					<path class="st5" d="M131.1,180.03c3.07-4.28,3.67-10.45,4-15.54c0.45-6.72-0.22-13.4-1.95-19.91
						c-1.83-6.9-4.72-13.5-7.93-19.87c-3.04-6.03-6.49-11.86-10.39-17.37c-7.07-9.98-15.6-18.98-25.68-25.97
						c-8.93-6.19-19.45-11.03-30.3-12.46c-5.64-0.75-11.41,0.26-15.57,4.4c-4.26,4.24-6.07,10.32-6.73,16.15
						c-1.33,11.8,1.58,24.14,6.13,34.98c4.39,10.46,10.54,20.1,17.77,28.82c6.91,8.34,14.87,15.88,23.74,22.12
						c7.24,5.09,15.39,9.6,24.12,11.44c6.69,1.41,13.99,1.08,19.53-3.34C129.09,182.48,130.15,181.31,131.1,180.03
						c1.16-1.55-1.45-3.04-2.59-1.51c-9.04,12.08-27.5,3.86-37.6-2.3c-8.51-5.19-16.17-11.75-22.99-19
						c-7.34-7.81-13.75-16.55-18.76-26.03c-5.15-9.76-8.79-20.46-9.7-31.5c-0.82-10.03,0.61-25.74,13.04-27.81
						c4.96-0.83,10.29,0.66,15,2.12c4.91,1.53,9.62,3.63,14.09,6.18c9.82,5.6,18.32,13.28,25.5,21.96
						c8.23,9.95,14.91,21.39,19.79,33.34c4.78,11.7,7.09,24.73,4.03,37.2c-0.5,2.05-1.16,4.11-2.4,5.85
						C127.38,180.08,129.99,181.58,131.1,180.03z"/>
				</g>
			</g>
			<g>
				<g>
					<path class="st5" d="M59.16,127.33c5.15,8.94,16.05,12.88,25.9,10.4c4.59-1.15,8.76-3.74,11.55-7.59
						c2.94-4.07,3.9-9.34,3.54-14.28c-0.76-10.4-6.79-21.44-16.28-26.29c-7.8-3.99-17.11-2.04-23.27,4.04
						c-7.79,7.68-7.88,19.22-3.85,28.8C57.46,124.1,58.27,125.73,59.16,127.33c0.94,1.68,3.54,0.17,2.59-1.51
						c-4.77-8.53-7.17-19.47-0.92-27.92c4.15-5.61,11.81-8.94,18.67-6.89c16.12,4.82,26.47,34.59,7.89,42.79
						c-9.11,4.02-20.62,0.74-25.64-7.98C60.79,124.14,58.19,125.65,59.16,127.33z"/>
				</g>
			</g>
			<g>
				<g>
					<path class="st5" d="M-54.85,110.15c16.26,9.73,29.49,23.53,41.53,37.99c12.12,14.57,23.2,30.01,36.05,43.97
						c12.44,13.52,26.78,25.88,43.88,33.04c16.02,6.7,34.66,9.08,51.41,3.68c15.49-5,27.54-16.64,34.23-31.35
						c6.6-14.52,8.38-31,6.16-46.73c-2.68-19.02-10.43-37.22-19.89-53.81c-4.88-8.56-10.37-16.71-16.04-24.75
						c-5.79-8.22-10.8-17.05-14.62-26.36c-5.62-13.69-8.78-28.41-8.74-43.23c0.02-7.43,0.68-14.87,2.71-22.02
						c0.09-0.33,0.19-0.66,0.3-0.99c0.62-1.83-2.28-2.62-2.89-0.8c-1.64,4.87-2.29,10.2-2.74,15.29
						c-1.13,12.85,0.25,25.92,3.63,38.35c2.31,8.49,5.57,16.72,9.59,24.54c2.35,4.58,4.97,9.01,7.82,13.3
						c2.77,4.17,5.75,8.19,8.54,12.35c10.75,16.04,20.11,33.24,25.62,51.82c2.47,8.32,4.23,16.89,4.57,25.58
						c0.31,7.9-0.42,15.85-2.33,23.53c-3.7,14.92-12.04,28.92-25.33,37.15c-14.86,9.2-33.35,9.85-49.89,5.44
						C61,221.4,45.82,210.81,32.8,198.17c-13.41-13.01-24.63-28-36.23-42.58c-11.64-14.64-23.85-29.05-38.77-40.47
						c-3.56-2.73-7.27-5.26-11.13-7.56C-54.99,106.56-56.5,109.16-54.85,110.15L-54.85,110.15z"/>
				</g>
			</g>
		</g>
	</g>
	<g class="st6">
		<defs>
			<rect id="SVGID_3_" transform="matrix(-1 -1.224647e-16 1.224647e-16 -1 750 500)" class="st6" width="750" height="500"/>
		</defs>
		<clipPath id="SVGID_4_">
			<use xlink:href="#SVGID_3_"  style="overflow:visible;"/>
		</clipPath>
		<g class="st7">
			<g>
				<g>
					<path class="st8" d="M319.03,568.55c4.14-25.52,6.53-51.31,7.12-77.16c0.59-25.87-0.61-51.78-3.6-77.48
						c-1.47-12.65-3.36-25.25-5.7-37.78c-1.94-10.4-4.28-20.75-7.61-30.8c-6.35-19.12-16.85-37.67-34.2-48.77
						c-16.32-10.44-37.01-13.68-55.82-9.26c-9.66,2.27-18.58,6.65-26.43,12.69c-8.02,6.18-14.79,13.78-21.02,21.72
						c-6.31,8.05-12.11,16.48-18.33,24.6c-6.5,8.48-13.57,16.4-21.64,23.42c-16.85,14.65-36.44,25.6-54.74,38.25
						c-8.73,6.03-17.36,12.42-24.93,19.89c-7.1,7.02-13.3,15-18.27,23.67c-9.26,16.16-14.75,35.96-9.31,54.33
						c1.29,4.35,3.19,8.5,5.58,12.36c0.51,0.82,1.81,0.07,1.3-0.76c-10.27-16.51-8.92-36.58-1.76-54.02
						c3.76-9.17,9.05-17.75,15.29-25.45c6.48-7.99,14.1-14.82,22.25-21.06c17.22-13.17,36.26-23.71,53.67-36.61
						c8.55-6.34,16.7-13.25,23.86-21.15c6.76-7.47,12.68-15.64,18.62-23.77c11.69-16.01,24.09-32.9,42.39-41.79
						c17.47-8.49,38.5-8.84,56.53-1.86c9.26,3.59,17.56,9.19,24.39,16.39c7.03,7.41,12.39,16.24,16.52,25.55
						c8.89,20.05,12.55,42.28,15.72,63.83c3.69,25.17,5.64,50.59,5.87,76.03c0.23,25.41-1.27,50.84-4.5,76.04
						c-0.79,6.19-1.69,12.36-2.69,18.52C317.43,569.1,318.88,569.5,319.03,568.55L319.03,568.55z"/>
				</g>
			</g>
			<g>
				<g>
					<path class="st9" d="M310.85,555.18c3.56-21.95,5.62-44.13,6.12-66.36c0.51-22.24-0.53-44.52-3.09-66.61
						c-1.27-10.89-2.89-21.73-4.9-32.51c-1.67-8.94-3.68-17.84-6.55-26.48c-5.47-16.46-14.51-32.43-29.46-41.99
						c-14.06-8.99-31.87-11.78-48.07-7.97c-8.31,1.95-15.99,5.72-22.75,10.92c-6.91,5.32-12.73,11.85-18.09,18.69
						c-5.43,6.93-10.42,14.19-15.77,21.17c-5.58,7.29-11.66,14.08-18.59,20.11c-14.48,12.59-31.31,22-47.04,32.87
						c-7.51,5.19-14.94,10.69-21.45,17.12c-6.11,6.04-11.45,12.91-15.72,20.37c-7.97,13.92-12.7,30.97-8.01,46.79
						c1.11,3.75,2.75,7.33,4.81,10.65c0.51,0.82,1.81,0.07,1.3-0.76c-8.82-14.18-7.65-31.4-1.51-46.36
						c3.23-7.87,7.77-15.23,13.12-21.83c5.57-6.86,12.11-12.73,19.11-18.09c14.81-11.32,31.17-20.38,46.14-31.47
						c7.36-5.45,14.38-11.4,20.53-18.2c5.82-6.43,10.92-13.46,16.02-20.45c10.04-13.75,20.69-28.26,36.41-35.9
						c15-7.29,33.05-7.58,48.52-1.59c7.94,3.08,15.06,7.89,20.92,14.06c6.04,6.37,10.64,13.95,14.18,21.95
						c7.64,17.23,10.78,36.33,13.5,54.85c3.17,21.63,4.85,43.48,5.04,65.34c0.19,21.85-1.09,43.71-3.86,65.38
						c-0.68,5.31-1.45,10.61-2.31,15.9C309.25,555.72,310.69,556.13,310.85,555.18L310.85,555.18z"/>
				</g>
			</g>
			<g>
				<g>
					<path class="st10" d="M293.11,531.5c3.13-19.24,5.16-38.65,6.02-58.12c0.86-19.36,0.58-38.78-0.88-58.11
						c-0.69-9.15-1.58-18.3-2.94-27.38c-1.21-8.08-2.85-16.16-5.63-23.86c-2.55-7.07-6.11-13.96-11.38-19.38
						c-4.9-5.04-11.31-8.52-18.24-9.74c-7-1.23-14.22-0.21-20.67,2.74c-5.96,2.73-10.75,6.98-14.81,12.06
						c-8.84,11.04-15.02,23.94-22.91,35.63c-1.86,2.75-3.81,5.45-5.96,7.98c-2.38,2.8-5.11,5.21-7.78,7.73
						c-6.42,6.05-12.69,12.28-18.65,18.79c-9.54,10.4-18.38,21.56-25.39,33.84c-5.82,10.19-10.23,21.13-13.15,32.49
						c-3,11.69-4.51,23.7-5.5,35.71c-0.27,3.26-0.5,6.52-0.71,9.78c-0.06,0.96,1.44,0.96,1.5,0c0.79-12.32,1.87-24.67,4.28-36.8
						c2.22-11.15,5.65-22.04,10.6-32.3c5.71-11.83,13.23-22.69,21.63-32.76c5.13-6.15,10.58-12.03,16.22-17.73
						c3.18-3.21,6.42-6.37,9.71-9.47c2.67-2.52,5.44-4.92,7.85-7.7c4.35-5,7.95-10.62,11.41-16.25c3.79-6.15,7.38-12.43,11.29-18.51
						c3.4-5.28,7.03-10.58,11.63-14.89c5.05-4.73,11.56-7.9,18.38-8.99c6.84-1.09,14,0.09,20.11,3.34
						c6.52,3.48,11.4,9.13,14.94,15.54c3.81,6.92,6.14,14.58,7.81,22.27c1.81,8.31,2.85,16.76,3.72,25.21
						c1.95,18.92,2.74,37.96,2.43,56.98c-0.31,19.21-1.75,38.4-4.3,57.45c-0.63,4.69-1.33,9.37-2.09,14.05
						C291.51,532.05,292.95,532.45,293.11,531.5L293.11,531.5z"/>
				</g>
			</g>
			<g>
				<g>
					<path class="st11" d="M283.05,533.89c2.65-16.26,4.37-32.67,5.11-49.12c0.74-16.36,0.53-32.76-0.67-49.1
						c-0.57-7.74-1.31-15.49-2.42-23.17c-0.99-6.87-2.32-13.74-4.57-20.32c-2.05-6-4.91-11.83-9.14-16.61
						c-4-4.52-9.36-7.78-15.26-9.12c-5.83-1.32-12-0.78-17.54,1.45c-5.85,2.35-10.69,6.44-14.71,11.23
						c-8.49,10.11-13.69,22.48-21.86,32.82c-5.49,6.95-11.21,13.72-16.56,20.79c-5.13,6.77-9.91,13.81-13.96,21.29
						c-4.62,8.52-8.27,17.54-11.1,26.81c-3.7,12.1-6.08,24.58-7.79,37.11c-0.5,3.63-0.94,7.26-1.33,10.91c-0.1,0.96,1.4,0.95,1.5,0
						c1.44-13.36,3.5-26.69,6.85-39.71c2.51-9.76,5.79-19.34,10.15-28.43c3.68-7.67,8.11-14.94,13.04-21.86
						c4.9-6.89,10.25-13.44,15.57-20.01c3.45-4.26,6.87-8.49,9.86-13.09c3.55-5.44,6.71-11.12,10.23-16.59
						c3.38-5.26,7.11-10.41,11.89-14.5c4.66-3.98,10.42-6.67,16.54-7.28c5.83-0.57,11.73,0.7,16.76,3.7
						c5.37,3.21,9.3,8.22,12.13,13.72c3.04,5.89,4.89,12.35,6.24,18.81c1.49,7.13,2.34,14.38,3.07,21.63
						c1.59,15.94,2.22,31.97,1.94,47.99c-0.29,16.17-1.51,32.33-3.66,48.36c-0.53,3.98-1.13,7.95-1.77,11.91
						C281.45,534.44,282.89,534.84,283.05,533.89L283.05,533.89z"/>
				</g>
			</g>
			<g>
				<g>
					<path class="st12" d="M267.29,534.93c1.55-9.23,3.09-18.46,4.35-27.73c1.26-9.24,2.25-18.52,2.69-27.84
						c0.43-9.3,0.31-18.64-0.66-27.9c-0.46-4.37-1.05-8.77-1.97-13.07c-0.69-3.24-1.66-6.43-3.05-9.44c-1.32-2.85-3.07-5.6-5.43-7.7
						c-2.42-2.16-5.42-3.51-8.66-3.77c-8.04-0.64-14.96,5.39-20.18,10.75c-5.73,5.89-10.99,12.22-15.85,18.84
						c-4.89,6.66-9.37,13.63-13.51,20.78c-4.15,7.16-7.98,14.5-11.59,21.95c-3.62,7.46-7.01,15.03-10.3,22.64
						c-0.8,1.85-1.59,3.7-2.38,5.55c-0.16,0.38-0.11,0.8,0.27,1.03c0.31,0.19,0.87,0.1,1.03-0.27c3.18-7.49,6.44-14.95,9.89-22.32
						c3.45-7.38,7.08-14.67,10.99-21.81c3.9-7.1,8.08-14.05,12.63-20.75c4.55-6.68,9.47-13.1,14.84-19.14
						c2.63-2.97,5.34-5.92,8.28-8.58c2.91-2.63,6.21-5.08,9.96-6.36c3.31-1.13,6.95-1.19,10.16,0.3c2.73,1.27,4.9,3.44,6.54,5.93
						c3.87,5.88,5.17,13.03,6.15,19.87c1.3,9.03,1.72,18.17,1.55,27.29c-0.17,9.16-0.94,18.3-2.04,27.4
						c-1.1,9.15-2.54,18.26-4.04,27.35c-0.36,2.2-0.73,4.4-1.1,6.6C265.69,535.47,267.13,535.88,267.29,534.93L267.29,534.93z"/>
				</g>
			</g>
			<g>
				<g>
					<path class="st8" d="M250.97,531.44c3.92-11.2,6.13-22.99,6.58-34.85c0.23-5.97,0.01-11.96-0.69-17.9
						c-0.49-4.19-1.45-8.62-3.89-12.14c-1.16-1.67-2.66-3.12-4.52-3.97c-2.21-1.02-4.67-1.19-7.03-0.61
						c-5.13,1.28-9.11,5.36-12.65,9.05c-7.72,8.05-14.83,16.68-21.26,25.79c-6.44,9.12-12.18,18.72-17.18,28.7
						c-0.62,1.24-1.23,2.49-1.82,3.74c-0.41,0.87,0.88,1.63,1.3,0.76c4.68-9.81,10.08-19.27,16.15-28.29
						c6.05-9,12.76-17.55,20.07-25.56c1.84-2.01,3.7-4,5.62-5.94c1.82-1.84,3.77-3.58,5.97-4.95c2.06-1.28,4.41-2.23,6.87-2.14
						c2.07,0.07,4.04,0.92,5.56,2.31c3.05,2.81,4.32,7.16,5.01,11.13c0.44,2.54,0.64,5.13,0.81,7.69c0.19,2.87,0.28,5.74,0.26,8.61
						c-0.07,11.58-1.86,23.13-5.29,34.19c-0.41,1.33-0.85,2.66-1.32,3.98C249.2,531.96,250.65,532.35,250.97,531.44L250.97,531.44z"
						/>
				</g>
			</g>
			<g>
				<g>
					<path class="st8" d="M461.5-97.01c0.3,25.37,2.33,50.71,6.05,75.81c3.73,25.12,9.17,49.99,16.26,74.37
						c3.56,12.24,7.54,24.35,11.94,36.31c3.63,9.88,7.57,19.66,12.39,29.03c9.29,18.05,22.46,35.21,41.35,43.85
						c17.9,8.19,39.2,8.36,57.4,0.98c9.16-3.71,17.32-9.32,24.12-16.48c7.1-7.47,12.65-16.23,17.54-25.26
						c5.04-9.3,9.43-18.94,14.32-28.31c5.02-9.61,10.71-18.74,17.59-27.13c14.19-17.3,31.63-31.48,47.5-47.15
						c7.55-7.46,14.93-15.27,21.05-23.97c5.71-8.12,10.35-17.01,13.69-26.35c6.23-17.42,8.1-37.68-0.37-54.71
						c-2.02-4.07-4.61-7.82-7.64-11.2c-0.64-0.72-1.7,0.34-1.06,1.06c12.9,14.43,15.03,34.42,11,52.74
						c-2.12,9.62-5.78,18.88-10.54,27.5c-4.96,8.97-11.23,16.99-18.15,24.53c-14.75,16.07-31.81,29.8-46.85,45.58
						c-7.39,7.76-14.27,16.04-20,25.11c-5.48,8.69-9.97,17.95-14.5,27.15c-8.93,18.12-18.59,37.29-35.82,48.91
						c-16.36,11.03-37.46,14.49-56.58,9.83c-20.09-4.89-35.53-19.06-46.36-36.19c-11.81-18.66-19.15-40.07-25.89-60.97
						c-7.62-23.65-13.67-47.8-18.08-72.25c-4.45-24.66-7.25-49.61-8.36-74.64c-0.27-6.05-0.43-12.09-0.5-18.15
						C462.99-97.98,461.49-97.98,461.5-97.01L461.5-97.01z"/>
				</g>
			</g>
			<g>
				<g>
					<path class="st9" d="M471.86-85.25c0.26,21.82,2,43.62,5.21,65.21c3.21,21.6,7.88,42.98,13.98,63.94
						c3.06,10.52,6.49,20.93,10.26,31.22c3.12,8.5,6.51,16.92,10.66,24.98c7.99,15.53,19.33,30.3,35.59,37.74
						c15.42,7.05,33.75,7.21,49.43,0.85c7.89-3.2,14.92-8.02,20.78-14.19c6.11-6.43,10.89-13.97,15.1-21.74
						c4.33-8,8.1-16.28,12.31-24.34c4.31-8.25,9.2-16.1,15.11-23.31c12.2-14.88,27.2-27.06,40.84-40.54
						c6.5-6.42,12.85-13.14,18.11-20.63c4.91-6.99,8.9-14.64,11.78-22.68c5.36-15.01,6.96-32.45-0.33-47.12
						c-1.74-3.51-3.98-6.74-6.58-9.65c-0.64-0.72-1.7,0.34-1.06,1.06c11.06,12.38,12.89,29.53,9.43,45.24
						c-1.82,8.26-4.96,16.22-9.05,23.62C719.18-7.88,713.79-1,707.85,5.48c-12.68,13.82-27.35,25.62-40.28,39.19
						c-6.36,6.68-12.28,13.8-17.21,21.61c-4.71,7.47-8.57,15.43-12.47,23.34c-7.67,15.56-15.96,32.03-30.76,42.01
						c-14.04,9.47-32.15,12.44-48.56,8.44c-17.25-4.2-30.5-16.36-39.8-31.07c-10.15-16.04-16.46-34.43-22.25-52.39
						c-6.55-20.33-11.75-41.1-15.55-62.12c-3.83-21.19-6.23-42.63-7.18-64.14c-0.23-5.2-0.37-10.4-0.43-15.6
						C473.35-86.21,471.85-86.21,471.86-85.25L471.86-85.25z"/>
				</g>
			</g>
			<g>
				<g>
					<path class="st10" d="M493.41-64.97c0.22,19.41,1.56,38.8,4.05,58.04c2.44,18.89,5.95,37.65,10.58,56.13
						c2.23,8.9,4.66,17.77,7.51,26.48c2.55,7.79,5.51,15.51,9.48,22.7c3.61,6.54,8.15,12.72,14.08,17.34
						c5.59,4.35,12.42,6.93,19.52,7.2c7.03,0.27,14.06-1.74,19.97-5.53c5.5-3.53,9.72-8.39,12.95-14.02
						c6.95-12.1,10.78-25.74,16.32-38.48c1.33-3.06,2.75-6.09,4.37-9.01c1.58-2.85,3.41-5.47,5.37-8.06
						c5.51-7.26,10.82-14.66,15.79-22.3c7.9-12.14,14.98-24.92,20.01-38.53c4.12-11.13,6.68-22.76,7.68-34.59
						c1.03-12.21,0.45-24.49-0.64-36.68c-0.29-3.26-0.62-6.51-0.98-9.76c-0.1-0.95-1.6-0.96-1.5,0c1.35,12.4,2.41,24.87,2.11,37.35
						c-0.28,11.55-1.87,23.02-5.09,34.12c-3.72,12.85-9.48,25-16.21,36.53c-4.14,7.09-8.65,13.97-13.38,20.69
						c-2.67,3.8-5.42,7.55-8.22,11.26c-2.04,2.7-4.05,5.36-5.74,8.31c-6.82,11.91-10.65,25.31-16.05,37.87
						c-2.43,5.66-5.12,11.44-8.97,16.29c-4.36,5.48-10.43,9.66-17.15,11.68c-6.66,2-13.84,1.83-20.38-0.56
						c-6.99-2.55-12.71-7.61-17.17-13.47c-4.78-6.28-8.28-13.47-11.17-20.78c-3.12-7.9-5.56-16.06-7.84-24.23
						c-5.06-18.1-9.03-36.51-11.93-55.08C497.84-12.95,496-32,495.25-51.1c-0.18-4.62-0.29-9.24-0.35-13.87
						C494.9-65.93,493.4-65.94,493.41-64.97L493.41-64.97z"/>
				</g>
			</g>
			<g>
				<g>
					<path class="st11" d="M502.91-69.06c0.18,16.16,1.28,32.3,3.3,48.33c2,15.87,4.89,31.62,8.71,47.15
						c1.85,7.53,3.88,15.02,6.22,22.42c2.06,6.53,4.42,13.01,7.53,19.12c5.56,10.92,14.26,21.21,27.08,22.99
						c5.77,0.8,11.67-0.21,16.9-2.75c5.59-2.72,10.04-7.14,13.46-12.27c7.37-11.05,10.42-24.3,16.22-36.13
						c2.18-4.45,4.73-8.73,7.14-13.07c2.14-3.85,4.26-7.71,6.3-11.62c3.98-7.64,7.6-15.49,10.42-23.64
						c3.21-9.28,5.33-18.89,6.59-28.62c1.64-12.63,1.87-25.42,1.43-38.14c-0.13-3.8-0.33-7.59-0.58-11.38
						c-0.06-0.96-1.56-0.97-1.5,0c0.88,13.57,1.16,27.22,0.06,40.79c-0.82,10.16-2.47,20.27-5.28,30.08
						c-2.39,8.33-5.62,16.37-9.41,24.15c-3.79,7.78-8.05,15.32-12.26,22.89c-2.82,5.07-5.44,10.16-7.64,15.54
						c-2.5,6.12-4.68,12.38-7.41,18.42c-2.56,5.67-5.62,11.28-10.03,15.74c-4.23,4.28-9.67,7.27-15.6,8.36
						c-5.71,1.04-11.71,0.2-16.91-2.38c-5.52-2.74-9.91-7.3-13.36-12.34c-3.75-5.48-6.54-11.59-8.86-17.79
						c-2.52-6.73-4.54-13.65-6.43-20.58c-4.16-15.21-7.42-30.67-9.81-46.26c-2.4-15.72-3.9-31.59-4.51-47.48
						c-0.15-3.84-0.24-7.67-0.28-11.51C504.4-70.02,502.9-70.02,502.91-69.06L502.91-69.06z"/>
				</g>
			</g>
			<g>
				<g>
					<path class="st12" d="M518.25-72.78c0.06,9,0.13,17.99,0.44,26.98c0.32,8.98,0.88,17.95,1.94,26.87
						c1.05,8.88,2.59,17.72,4.86,26.38c1.13,4.3,2.44,8.55,3.95,12.72c1.22,3.36,2.62,6.66,4.47,9.72
						c3.43,5.65,8.75,10.87,15.79,10.82c7.6-0.06,13.44-6.08,17.64-11.77c4.96-6.72,9.18-14.08,12.98-21.51
						c3.86-7.55,7.22-15.36,10.2-23.29c3.01-7.99,5.63-16.13,8-24.33c2.37-8.22,4.49-16.51,6.49-24.83
						c0.49-2.03,0.97-4.06,1.44-6.09c0.22-0.94-1.23-1.34-1.45-0.4c-1.91,8.18-3.9,16.34-6.11,24.45
						c-2.21,8.11-4.63,16.16-7.39,24.1c-2.73,7.87-5.8,15.62-9.32,23.17c-3.52,7.55-7.49,14.9-12,21.9
						c-2.11,3.29-4.29,6.57-6.89,9.49c-2.37,2.66-5.14,5.14-8.46,6.53c-3.11,1.31-6.58,1.44-9.74,0.26c-3.02-1.12-5.5-3.35-7.5-5.83
						c-4.72-5.84-7.1-13.35-9.22-20.44c-2.5-8.36-4.27-16.92-5.51-25.55c-1.26-8.74-1.98-17.54-2.41-26.36
						c-0.43-8.84-0.57-17.69-0.65-26.54c-0.02-2.16-0.03-4.31-0.05-6.47C519.74-73.75,518.24-73.75,518.25-72.78L518.25-72.78z"/>
				</g>
			</g>
			<g>
				<g>
					<path d="M534.96-72.36c-1.95,11.81-2.11,23.87-0.49,35.73c0.81,5.89,2.05,11.74,3.74,17.44c1.23,4.13,3.02,8.43,6.17,11.48
						c1.47,1.43,3.28,2.54,5.3,2.99c2.24,0.5,4.53,0.2,6.62-0.72c4.48-1.97,7.6-6.22,10.27-10.15c6.39-9.39,12.05-19.28,16.93-29.55
						c4.85-10.22,8.94-20.81,12.19-31.65c0.41-1.36,0.8-2.72,1.18-4.08c0.26-0.93-1.19-1.33-1.45-0.4
						c-2.97,10.63-6.73,21.04-11.25,31.11c-4.52,10.06-9.79,19.78-15.75,29.05c-2.68,4.17-5.35,8.64-9.12,11.93
						c-1.68,1.46-3.64,2.66-5.85,3.07c-2,0.37-4.1-0.02-5.85-1.03c-3.62-2.08-5.73-6.21-7.11-9.99c-0.89-2.43-1.54-4.94-2.17-7.45
						c-0.7-2.81-1.29-5.65-1.78-8.5c-1.96-11.43-2.2-23.16-0.74-34.67c0.18-1.41,0.39-2.81,0.62-4.22
						C536.56-72.9,535.12-73.31,534.96-72.36L534.96-72.36z"/>
				</g>
			</g>
			<g>
				<g>
					<path class="st8" d="M786.05,33.53c-12.08,8.5-23.72,17.62-34.85,27.33c-11.1,9.68-21.69,19.94-31.7,30.74
						c-4.98,5.37-9.81,10.88-14.49,16.51c-4.86,5.85-9.61,11.82-13.74,18.21c-6.93,10.75-12.99,24.22-8.94,37.15
						c3.34,10.66,12.77,18.31,23.67,20.2c6.8,1.18,13.77,0.35,20.49-0.95c7.3-1.41,14.46-3.44,21.75-4.84
						c5.64-1.08,11.36-1.52,17.07-2.06c4.51-0.43,9.03-0.86,13.53-1.39c8.76-1.02,17.49-2.42,26.02-4.71
						c9.59-2.57,18.84-6.23,27.69-10.71c11.62-5.89,22.55-13.09,33.01-20.84c3.06-2.27,6.09-4.59,9.09-6.95
						c0.76-0.6-0.31-1.65-1.06-1.06c-10.88,8.57-22.21,16.66-34.26,23.51c-8.98,5.1-18.37,9.45-28.2,12.63
						c-8.35,2.7-16.94,4.52-25.61,5.76c-8.8,1.26-17.66,1.99-26.5,2.84c-6.71,0.65-13.24,1.86-19.79,3.4
						c-7.05,1.66-14.12,3.52-21.35,4.18c-6.27,0.58-12.7,0.18-18.54-2.37c-4.91-2.15-9.22-5.64-12.21-10.1
						c-3-4.49-4.59-9.81-4.6-15.21c0-6.85,2.3-13.54,5.35-19.6c3.4-6.74,7.78-12.96,12.42-18.9c4.45-5.69,9.12-11.22,13.91-16.63
						c9.54-10.79,19.66-21.07,30.28-30.81c10.74-9.85,21.99-19.14,33.69-27.82c2.85-2.12,5.73-4.19,8.64-6.24
						C787.59,34.27,786.84,32.97,786.05,33.53L786.05,33.53z"/>
				</g>
			</g>
			<g>
				<g>
					<path class="st9" d="M797.81,44.06c-6.79,4.73-13.58,9.47-20.25,14.36c-6.66,4.89-13.22,9.93-19.52,15.27
						c-6.24,5.28-12.25,10.86-17.83,16.83c-2.8,2.99-5.49,6.08-8.05,9.28c-2.53,3.16-5.02,6.4-7.17,9.83
						c-3.89,6.21-7.46,14.51-4.49,21.8c1.3,3.19,3.67,5.74,6.66,7.42c2.94,1.65,6.27,2.48,9.59,2.92c3.76,0.5,7.55,0.48,11.34,0.39
						c4.51-0.11,9.02-0.41,13.51-0.87c8.97-0.92,17.87-2.49,26.65-4.54c8.85-2.06,17.58-4.59,26.21-7.41
						c8.62-2.82,17.14-5.93,25.6-9.18c2.08-0.8,4.16-1.61,6.24-2.42c0.89-0.35,0.5-1.8-0.4-1.45c-8.33,3.26-16.69,6.42-25.14,9.34
						c-8.41,2.91-16.91,5.57-25.51,7.83c-8.55,2.25-17.22,4.1-25.97,5.37c-8.68,1.26-17.49,1.98-26.27,1.86
						c-6.31-0.09-13.73-0.88-18.38-5.64c-2.5-2.56-3.72-6-3.68-9.55c0.04-3.82,1.34-7.56,3.01-10.95c1.74-3.53,3.99-6.75,6.34-9.89
						c2.41-3.24,4.97-6.36,7.64-9.39c5.33-6.05,11.11-11.7,17.15-17.04c6.06-5.36,12.4-10.4,18.86-15.26
						c6.48-4.87,13.09-9.56,19.73-14.2c1.63-1.14,3.27-2.28,4.9-3.42C799.36,44.81,798.61,43.51,797.81,44.06L797.81,44.06z"/>
				</g>
			</g>
			<g>
				<g>
					<path d="M806.74,58.17c-9.66,4.53-18.68,10.36-26.79,17.29c-4.03,3.44-7.83,7.15-11.36,11.1c-3.46,3.88-6.99,7.97-8.84,12.9
						c-0.86,2.29-1.28,4.78-0.84,7.21c0.4,2.21,1.59,4.27,3.27,5.74c3.32,2.9,7.98,3.64,12.24,3.85c2.69,0.13,5.39,0.05,8.08-0.02
						c3.04-0.08,6.09-0.22,9.13-0.42c5.99-0.4,11.96-1.05,17.89-1.93c11.89-1.76,23.65-4.48,35.1-8.15
						c1.43-0.46,2.86-0.93,4.28-1.42c0.91-0.31,0.52-1.76-0.4-1.45c-11.08,3.79-22.45,6.7-33.99,8.7
						c-11.59,2.01-23.33,3.08-35.09,3.22c-4.41,0.05-9.11,0.12-13.24-1.66c-1.82-0.78-3.48-1.98-4.56-3.66
						c-1.27-1.99-1.63-4.36-1.23-6.67c0.86-5.03,4.19-9.27,7.42-13.06c3.37-3.95,7-7.68,10.86-11.16
						c7.67-6.91,16.25-12.8,25.46-17.47c1.12-0.57,2.25-1.12,3.38-1.65C808.37,59.05,807.61,57.76,806.74,58.17L806.74,58.17z"/>
				</g>
			</g>
			<g>
				<g>
					<path class="st8" d="M-27.06,405.41c27.99-6.18,54.87-17.12,79.3-32.11c24.3-14.92,46.19-33.8,64.32-55.82
						c17.92-21.77,31.75-48.49,55.96-64.2c26.77-17.37,60.44-14.77,90.14-7.81c32.22,7.55,63.85,20.67,97.49,19.68
						c26.09-0.77,51.23-10.93,71.64-26.97c21.02-16.51,36.88-39.17,44.88-64.69c8.73-27.83,8.44-58.11,0.75-86.14
						c-7.58-27.65-22.51-52.72-42.53-73.17c-19.42-19.85-43.21-35.25-68.91-45.67c-6.35-2.57-12.82-4.82-19.38-6.78
						c-0.93-0.28-1.32,1.17-0.4,1.45c26.85,8.02,52.21,21.24,73.74,39.23c21.81,18.23,39.57,41.38,50.16,67.86
						c10.91,27.28,14.55,57.69,9.15,86.65c-5.08,27.2-18.37,52.13-38.32,71.32c-19.05,18.33-43.7,31.2-70.05,34.58
						c-32.78,4.2-64.64-7.29-95.8-15.72c-28.1-7.6-59.35-13.25-87.55-2.96c-26.63,9.72-43.02,33.23-59.03,55.24
						c-16.96,23.33-36.49,44.12-59.87,61.15c-23.06,16.79-48.87,29.81-76.13,38.19c-6.58,2.02-13.24,3.77-19.96,5.25
						C-28.4,404.17-28,405.62-27.06,405.41L-27.06,405.41z"/>
				</g>
			</g>
			<g>
				<g>
					<path class="st9" d="M345.14-23.53c21.55,4.42,41.43,14.99,58.06,29.29c17.3,14.87,31.18,33.59,40.95,54.17
						c10.08,21.23,15.78,44.62,16.03,68.14c0.12,11.86-1.14,23.75-4.34,35.19c-3.06,10.94-7.91,21.71-15.52,30.26
						c-7.78,8.73-18.42,14.47-30.17,15.28c-12.67,0.87-25.09-3.59-35.99-9.71c-22.95-12.89-39.33-33.8-59.25-50.51
						c-9.18-7.7-19.22-14.68-30.57-18.77c-11.77-4.24-24.07-4.37-36.32-2.43c-24.39,3.85-51.15,15.9-75.16,4.14
						c-20.52-10.04-31.79-33-35.73-54.55c-5.18-28.28,2.32-57.25,11.38-83.93c2.32-6.83,4.79-13.61,7.26-20.39
						c0.33-0.91-1.12-1.3-1.45-0.4c-10.35,28.34-20.86,57.63-20.33,88.22c0.4,22.6,8.05,46.96,24.72,62.89
						c8.22,7.86,18.48,12.85,29.79,14.21c12.98,1.56,26.02-1.36,38.6-4.27c12.94-2.99,26.11-6.35,39.49-5.61
						c12.72,0.7,24.52,5.73,35.03,12.72c21.91,14.58,37.89,36.11,58.99,51.67c19.59,14.44,46.48,25.8,69.46,11.97
						c19.74-11.87,28.08-36.47,30.68-58.16c2.84-23.65-0.64-48.11-8.59-70.49c-7.79-21.92-20.05-42.31-35.98-59.27
						c-15.25-16.23-34.02-29.38-55.1-36.8c-5.08-1.79-10.27-3.22-15.54-4.3C344.6-25.17,344.19-23.72,345.14-23.53L345.14-23.53z"/>
				</g>
			</g>
			<g>
				<g>
					<path class="st10" d="M325.6-13.65C343.94-8.26,361.07,0.93,375.88,13c14.65,11.94,27.06,26.62,36.28,43.12
						c8.8,15.76,15.32,33.52,15.72,51.73c0.35,15.75-3.73,33.79-17.26,43.49c-18.18,13.04-41.76,4.23-58.52-6.81
						c-9.06-5.96-17.5-12.82-26.63-18.68c-8.66-5.57-17.94-9.98-28.08-12.02c-19.34-3.9-39.23-0.57-58.57,1.64
						c-18.56,2.13-38.62,3.91-56.11-4.12c-18.05-8.29-29.06-25.75-33.36-44.65c-5.15-22.65-0.28-46,6.2-67.85
						c1.72-5.79,3.56-11.55,5.41-17.3c0.3-0.92-1.15-1.32-1.45-0.4c-7.47,23.2-15.3,47.4-13.63,72.11
						c1.29,19.06,8.58,38.82,23.49,51.41c7.23,6.11,15.99,10.15,25.21,12.17c9.36,2.05,19.04,2.17,28.56,1.59
						c20.16-1.24,40.17-5.69,60.44-4.75c10.3,0.48,20.41,2.58,29.75,7.04c10.05,4.79,18.97,11.57,27.95,18.08
						c8.96,6.5,18.12,12.72,28.54,16.64c9.88,3.72,20.95,5.42,31.23,2.27c7.93-2.43,14.68-7.57,19.35-14.4
						c4.62-6.76,7.13-14.79,8.25-22.84c2.5-17.92-1.69-35.7-8.78-52.12c-7.66-17.71-18.93-33.82-32.71-47.3
						C373.42,7.63,357.13-3.2,339.32-10.45c-4.36-1.77-8.81-3.32-13.32-4.65C325.07-15.37,324.68-13.92,325.6-13.65L325.6-13.65z"/>
				</g>
			</g>
			<g>
				<g>
					<path class="st11" d="M387.81,152.37c9.81,0.37,19.26-4.45,24.74-12.59c1.34-1.98,2.41-4.14,3.21-6.39
						c0.88-2.48,1.32-5.07,1.69-7.67c0.77-5.49,1.04-11.03,0.8-16.57c-0.49-11.08-3-22.04-7.42-32.21
						c-4.4-10.13-10.78-19.63-18.94-27.11c-7.98-7.31-18.08-13.03-28.95-14.3c-5.21-0.61-10.57-0.05-15.46,1.9
						c-4.85,1.93-9.09,5.12-12.47,9.08c-7.07,8.28-10.49,19.16-11.39,29.87c-0.98,11.59,1.03,23.38,5.62,34.06
						c4.49,10.47,11.57,19.71,20.51,26.77c8.77,6.93,19.15,11.83,30.11,14.04C382.48,151.77,385.14,152.14,387.81,152.37
						c0.96,0.08,0.96-1.42,0-1.5c-10.82-0.91-21.36-4.5-30.58-10.23c-9.34-5.8-17.26-13.78-22.82-23.28
						c-5.7-9.74-8.96-20.9-9.46-32.17c-0.47-10.72,1.42-21.83,6.72-31.26c2.48-4.4,5.72-8.45,9.81-11.46
						c4.1-3.02,8.94-4.95,14.01-5.5c10.53-1.13,20.97,3.13,29.42,9.13c8.79,6.24,15.82,14.86,21.01,24.25
						c5.22,9.44,8.59,19.86,10.08,30.53c0.74,5.32,0.99,10.72,0.76,16.09c-0.12,2.73-0.35,5.45-0.73,8.16
						c-0.34,2.49-0.75,4.98-1.55,7.37c-2.97,8.91-10.63,15.76-19.8,17.78c-2.26,0.5-4.56,0.68-6.87,0.59
						C386.85,150.83,386.85,152.33,387.81,152.37z"/>
				</g>
			</g>
			<g>
				<g>
					<path class="st12" d="M383.15,75.68c-5.29-1.56-11.08-0.25-15.18,3.44c-2.14,1.93-3.48,4.34-4.57,6.98
						c-1.22,2.97-2.14,6.06-2.75,9.21c-2.36,12.14-0.33,25.76,7.05,35.91c3.4,4.68,8.04,8.78,13.63,10.57
						c5.59,1.79,11.5,0.62,16.14-2.92c4.75-3.63,7.93-8.99,9.76-14.61c2.05-6.29,2.43-13.09,1.19-19.58
						c-2.27-11.84-10.39-22.15-21.25-27.34C385.86,76.7,384.52,76.15,383.15,75.68c-0.91-0.32-1.31,1.13-0.4,1.45
						c10.58,3.69,19.3,12.35,22.91,22.98c2.02,5.97,2.51,12.46,1.4,18.66c-1.03,5.76-3.35,11.47-7.26,15.89
						c-3.61,4.08-8.6,6.85-14.16,6.47c-5.53-0.38-10.48-3.7-14.16-7.66c-8.1-8.7-11.12-21.46-10.04-33.08
						c0.28-2.96,0.83-5.89,1.65-8.75c0.79-2.77,1.74-5.67,3.23-8.15c2.63-4.37,7.5-7.06,12.6-6.96c1.31,0.03,2.59,0.24,3.84,0.61
						C383.68,77.4,384.07,75.95,383.15,75.68z"/>
				</g>
			</g>
			<g>
				<g>
					<path class="st13" d="M384.6,96.64c-3.27-0.95-6.79-0.17-9.36,2.06c-1.34,1.17-2.19,2.65-2.87,4.27
						c-0.75,1.79-1.32,3.66-1.7,5.56c-1.5,7.45-0.29,15.86,4.24,22.1c2.1,2.89,4.94,5.42,8.39,6.54c3.41,1.1,7.06,0.44,9.92-1.7
						c6.25-4.67,8.27-13.61,6.89-20.97c-1.36-7.3-6.37-13.68-13.06-16.87C386.25,97.27,385.43,96.94,384.6,96.64
						c-0.91-0.32-1.31,1.13-0.4,1.45c6.27,2.2,11.46,7.32,13.62,13.61c2.3,6.71,1.41,15.09-3.35,20.57
						c-2.13,2.46-5.07,4.15-8.4,3.93c-3.28-0.21-6.21-2.2-8.39-4.54c-4.8-5.15-6.6-12.71-6.01-19.59c0.15-1.77,0.47-3.52,0.95-5.23
						c0.46-1.65,1.02-3.37,1.87-4.86c1.51-2.65,4.4-4.31,7.46-4.25c0.77,0.01,1.52,0.14,2.26,0.36
						C385.13,98.36,385.52,96.91,384.6,96.64z"/>
				</g>
			</g>
			<g>
				<g>
					<path class="st9" d="M346.2,220c1.14-2.71,0.91-5.88,0.46-8.72c-0.57-3.58-1.73-7.05-3.17-10.36
						c-3.24-7.48-8.5-13.77-14.56-19.14c-6.32-5.61-13.38-10.47-20.6-14.83c-7.22-4.36-14.78-8.16-22.59-11.36
						c-15-6.13-30.98-9.97-47.18-10.94c-7.83-0.47-15.7-0.26-23.49,0.7c-6.88,0.85-14.27,2-20.1,6.04
						c-2.76,1.91-5.01,4.47-6.34,7.57c-1.41,3.28-1.77,6.9-1.32,10.43c0.98,7.73,5.19,14.8,9.93,20.83
						c7.48,9.5,17.36,16.92,27.78,22.92c10.6,6.1,21.99,10.85,33.66,14.51c11.44,3.59,23.23,6.14,35.16,7.36
						c10.07,1.03,20.44,1.2,30.41-0.81c7.11-1.43,14.81-4.17,19.47-10.04c0.97-1.22,1.78-2.54,2.4-3.96
						c0.38-0.88-0.91-1.64-1.3-0.76c-2.74,6.29-9.03,9.86-15.3,11.86c-8.83,2.82-18.38,3.22-27.58,2.81
						c-11.38-0.5-22.69-2.43-33.7-5.28c-11.68-3.03-23.11-7.13-33.94-12.45c-10.03-4.92-19.69-10.91-27.92-18.51
						c-5.36-4.95-10.16-10.65-13.63-17.09c-3.36-6.25-5.67-13.91-2.93-20.82c2.58-6.51,9.13-9.75,15.54-11.39
						c7.12-1.82,14.66-2.43,21.99-2.61c15.74-0.39,31.47,2.1,46.45,6.89c15.64,5,30.44,12.51,43.83,21.99
						c6.76,4.78,13.3,10.07,18.45,16.6c4.54,5.77,7.87,12.76,9.09,20.03c0.44,2.65,0.64,5.6-0.42,8.13
						C344.38,220.5,345.83,220.88,346.2,220z"/>
				</g>
			</g>
			<g>
				<g>
					<path class="st12" d="M306.53,209.49c0.56-1.84,0.29-3.88-0.11-5.72c-0.52-2.41-1.4-4.73-2.43-6.96
						c-2.27-4.89-5.61-9.12-9.51-12.81c-4.15-3.93-8.82-7.36-13.6-10.49c-4.7-3.08-9.61-5.83-14.72-8.19
						c-9.61-4.44-19.88-7.51-30.42-8.61c-4.96-0.52-9.97-0.59-14.94-0.13c-4.38,0.41-9.16,0.97-12.95,3.38
						c-1.82,1.16-3.34,2.77-4.21,4.75c-0.94,2.12-1.19,4.47-0.93,6.76c0.59,5.13,3.23,9.88,6.23,13.98
						c5.07,6.91,11.73,12.47,18.94,17.04c7,4.43,14.55,7.98,22.34,10.79c7.46,2.69,15.2,4.72,23.07,5.79
						c6.51,0.89,13.25,1.24,19.74-0.01c4.58-0.88,9.47-2.76,12.17-6.79C305.78,211.41,306.21,210.46,306.53,209.49
						c0.3-0.92-1.15-1.31-1.45-0.4c-0.59,1.83-1.72,3.39-3.25,4.68c-1.61,1.35-3.72,2.33-5.78,2.98
						c-5.63,1.79-11.77,1.83-17.61,1.38c-7.41-0.58-14.74-2.16-21.85-4.32c-7.67-2.33-15.12-5.39-22.17-9.22
						c-6.71-3.65-13.12-8.02-18.56-13.41c-3.63-3.6-6.9-7.69-9.22-12.26c-2.02-3.99-3.54-8.95-1.78-13.31
						c1.64-4.06,5.91-5.83,9.91-6.67c4.54-0.96,9.27-1.22,13.89-1.16c10.07,0.15,20.06,2.3,29.48,5.81
						c10.3,3.83,19.96,9.33,28.7,15.97c4.36,3.3,8.55,6.96,11.86,11.34c2.89,3.83,5.15,8.33,6.21,13.02
						c0.38,1.66,0.67,3.51,0.16,5.17C304.8,210.01,306.25,210.41,306.53,209.49z"/>
				</g>
			</g>
			<g>
				<g>
					<path class="st8" d="M-31.48,372.36c36.6-14.22,71.47-32.79,103.63-55.33c29.54-20.7,59.58-46.22,68.27-82.91
						c3.94-16.64,2.39-33.49-4.68-49.05c-6.49-14.28-16.24-26.72-24.95-39.67c-8.65-12.86-16.73-26.83-18.41-42.53
						c-2-18.82,4.7-37.07,7.08-55.52c1.15-8.9,1.26-18.03-1.07-26.76c-2.1-7.86-6.11-15.09-11.18-21.41
						c-11.44-14.26-27.85-23.1-44.55-29.76c-4.54-1.81-9.14-3.48-13.76-5.1c-0.91-0.32-1.3,1.13-0.4,1.45
						c17.78,6.26,35.96,13.4,50.04,26.36C84.7-2.19,90,4.48,93.63,12.05c3.9,8.14,5.39,17.03,5.12,26.02
						c-0.57,18.42-7.34,36-8.15,54.39c-0.69,15.67,4.44,30.03,12.32,43.36c7.78,13.16,17.44,25.1,25.28,38.23
						c8.5,14.24,13.87,29.59,12.79,46.38c-2.45,38.02-30.81,66.75-59.73,88.2c-30.76,22.82-64.38,41.9-99.66,56.82
						c-4.47,1.89-8.96,3.71-13.48,5.46C-32.77,371.26-32.39,372.71-31.48,372.36L-31.48,372.36z"/>
				</g>
			</g>
			<g>
				<g>
					<path class="st9" d="M-29.14,350.95c13.51-6.2,27.02-12.43,40.1-19.49c12.94-6.98,25.48-14.8,36.9-24.09
						C58.88,298.39,68.7,288,76.52,276.1c7.53-11.45,13.24-24.25,15.89-37.73c2.62-13.28,2.12-27.06-1.95-39.99
						c-3.94-12.52-10.9-23.98-19.76-33.63c-9.38-10.21-20.9-18.25-33.51-23.95c-13.38-6.05-27.82-9.54-42.43-10.88
						c-12.95-1.19-26.16-0.85-38.83,2.3c-11.51,2.86-22.78,8.19-30.86,17.08c-1.94,2.14-3.67,4.46-5.18,6.93
						c-0.51,0.83,0.79,1.58,1.3,0.76c6.25-10.22,16.42-17.08,27.56-21.04c11.54-4.11,23.92-5.42,36.11-5.1
						c14.54,0.38,29.07,2.82,42.78,7.72c13.19,4.71,25.59,11.76,35.95,21.23c9.55,8.72,17.4,19.36,22.54,31.25
						c5.28,12.21,7.34,25.57,6.04,38.81c-1.33,13.54-5.98,26.63-12.64,38.44c-6.74,11.97-15.53,22.71-25.68,31.96
						c-10.73,9.78-22.77,18.02-35.32,25.28C6,332.76-7.05,339.07-20.18,345.17c-3.24,1.5-6.48,2.99-9.72,4.48
						C-30.78,350.06-30.02,351.35-29.14,350.95L-29.14,350.95z"/>
				</g>
			</g>
			<g>
				<g>
					<path class="st10" d="M-24.49,329.4c7.91-4.56,15.65-9.42,23.05-14.76c7.35-5.3,14.39-11.06,20.84-17.45
						c6.35-6.29,12.12-13.18,16.97-20.69c4.67-7.23,8.4-15.01,10.9-23.25c2.45-8.06,3.77-16.49,3.79-24.91
						c0.02-8.25-1.22-16.55-3.99-24.34c-2.78-7.83-7.09-15.07-12.81-21.12c-6.14-6.5-13.72-11.58-21.89-15.17
						c-8.63-3.8-17.86-5.98-27.24-6.8c-10.67-0.93-21.43-0.14-31.96,1.66c-2.61,0.44-5.21,0.96-7.8,1.52
						c-0.94,0.2-0.54,1.65,0.4,1.45c19.76-4.28,40.83-5.48,60.2,1.26c8.3,2.89,16.19,7.19,22.85,12.95
						c6.31,5.46,11.37,12.2,14.85,19.79c6.83,14.95,7.35,32.29,3.57,48.12c-4.01,16.78-13.14,31.69-24.81,44.26
						c-12.17,13.12-26.83,23.7-42.11,32.91c-1.84,1.11-3.7,2.2-5.56,3.27C-26.09,328.59-25.33,329.88-24.49,329.4L-24.49,329.4z"/>
				</g>
			</g>
			<g>
				<g>
					<path class="st11" d="M-11.75,305.4c9.7-6.5,19.01-13.78,26.84-22.48c7.57-8.41,13.75-18.3,16.37-29.41
						c2.64-11.24,1.3-23.07-3.55-33.53c-4.85-10.46-13.14-19.1-23.53-24.12c-10.51-5.09-22.73-6.6-34.15-4.04
						c-1.4,0.32-2.78,0.7-4.15,1.13c-0.92,0.29-0.52,1.74,0.4,1.45c10.91-3.49,22.9-2.94,33.56,1.19
						c10.57,4.1,19.33,11.83,24.84,21.73c5.45,9.78,7.66,21.36,5.82,32.43c-1.82,10.93-7.22,20.87-14.25,29.33
						c-7.31,8.81-16.22,16.2-25.58,22.73c-1.11,0.78-2.24,1.54-3.36,2.3C-13.3,304.64-12.55,305.94-11.75,305.4L-11.75,305.4z"/>
				</g>
			</g>
			<g>
				<g>
					<path class="st12" d="M-7.78,288.15c6.63-3.48,12.18-8.81,16.21-15.11c4.03-6.31,6.53-13.59,7.15-21.06
						c0.63-7.52-0.8-15.07-4.17-21.82c-3.37-6.76-8.54-12.57-14.7-16.91c-6.17-4.34-13.41-7.17-20.93-7.91
						c-0.95-0.09-1.9-0.15-2.85-0.18c-0.97-0.03-0.96,1.47,0,1.5c7.3,0.21,14.43,2.5,20.64,6.32c6.24,3.83,11.55,9.19,15.24,15.52
						c3.67,6.3,5.56,13.47,5.42,20.76c-0.14,7.22-2.17,14.37-5.69,20.67c-3.53,6.32-8.58,11.82-14.77,15.61
						c-0.75,0.46-1.52,0.9-2.31,1.31C-9.39,287.31-8.64,288.6-7.78,288.15L-7.78,288.15z"/>
				</g>
			</g>
			<g>
				<g>
					<path class="st9" d="M-14.27,103.69c7.95,2.27,16.32,2.96,24.54,2.13c8.18-0.83,16.18-3.13,23.53-6.81
						c7.32-3.67,13.9-8.75,19.3-14.92c5.31-6.07,9.48-13.1,12.33-20.64c2.87-7.58,4.37-15.69,4.29-23.8
						c-0.08-8.15-1.77-16.25-4.71-23.84C62.06,8.21,57.9,1.13,52.85-5.27c-5.19-6.57-11.32-12.32-18.1-17.22
						c-7.09-5.13-14.84-9.28-22.92-12.63c-8.18-3.38-16.71-5.91-25.36-7.74c-2.11-0.45-4.23-0.85-6.36-1.22
						c-0.94-0.16-1.35,1.28-0.4,1.45c8.52,1.47,16.94,3.55,25.1,6.42c8.14,2.86,16,6.51,23.33,11.07
						c7.08,4.41,13.62,9.67,19.28,15.8c5.46,5.91,10.1,12.58,13.64,19.81c3.5,7.16,5.9,14.92,6.78,22.85
						c0.87,7.88,0.23,15.86-1.84,23.51c-2.08,7.67-5.54,14.95-10.17,21.41c-4.66,6.49-10.54,12.1-17.31,16.37
						c-6.85,4.32-14.51,7.29-22.46,8.83c-7.94,1.54-16.2,1.63-24.15,0.15c-1.95-0.36-3.88-0.82-5.78-1.36
						C-14.81,101.98-15.2,103.42-14.27,103.69L-14.27,103.69z"/>
				</g>
			</g>
			<g>
				<g>
					<path class="st10" d="M-13.12,79.57C-6.3,82.4,0.96,84.2,8.34,84.68c7.25,0.47,14.66-0.37,21.51-2.86
						c5.76-2.1,11.09-5.35,15.57-9.53c4.46-4.16,8.05-9.27,10.24-14.98c2.38-6.19,2.86-12.92,1.87-19.45
						c-1.04-6.85-3.69-13.41-7.2-19.35c-3.46-5.87-7.82-11.19-12.7-15.94c-4.76-4.63-10.06-8.73-15.72-12.2
						c-5.64-3.46-11.66-6.3-17.91-8.47c-6.28-2.18-12.81-3.65-19.42-4.38c-1.61-0.18-3.23-0.31-4.85-0.4c-0.96-0.05-0.96,1.45,0,1.5
						c12.96,0.7,25.71,4.4,37.12,10.57C28.24-4.66,38.55,4,46.02,14.61c7.61,10.8,12.69,24.51,9.58,37.78
						c-2.75,11.73-11.65,21.27-22.36,26.39c-12.75,6.1-27.8,5.57-40.98,1.21c-1.68-0.56-3.35-1.18-4.98-1.86
						C-13.62,77.75-14,79.2-13.12,79.57L-13.12,79.57z"/>
				</g>
			</g>
			<g>
				<g>
					<path class="st11" d="M-15.81,61.92c9.62,4.33,20.48,7.17,30.96,4.5c4.49-1.15,8.76-3.26,12.21-6.38
						c3.58-3.24,5.99-7.52,7.31-12.13c2.68-9.39,1.36-19.89-2.08-28.9c-3.5-9.14-9.45-17.23-17.25-23.16
						c-7.8-5.93-17.28-9.62-27.03-10.56c-1.22-0.12-2.44-0.19-3.67-0.22c-0.97-0.02-0.97,1.48,0,1.5
						c9.48,0.24,18.82,3.19,26.77,8.35c7.96,5.16,14.28,12.54,18.29,21.12c3.94,8.41,5.85,18.25,4.39,27.49
						c-0.73,4.63-2.38,9.21-5.35,12.88c-2.8,3.45-6.6,6-10.75,7.55c-9.62,3.61-20.08,1.86-29.41-1.79c-1.23-0.48-2.44-1-3.65-1.54
						C-15.93,60.23-16.69,61.52-15.81,61.92L-15.81,61.92z"/>
				</g>
			</g>
			<g>
				<g>
					<path class="st12" d="M177.81-25.1c-1.95,8.01-2.31,16.34-1.19,24.5c1.12,8.12,3.72,16.04,7.66,23.23
						c3.94,7.18,9.24,13.56,15.6,18.72c6.27,5.09,13.44,9.01,21.1,11.59c7.68,2.59,15.86,3.79,23.97,3.41
						c8.1-0.39,16.05-2.35,23.5-5.53c7.46-3.18,14.37-7.58,20.55-12.82c6.36-5.39,11.89-11.7,16.53-18.62
						c4.94-7.35,8.87-15.35,11.93-23.65c3.11-8.41,5.32-17.13,6.82-25.97c0.36-2.13,0.68-4.26,0.96-6.4c0.13-0.95-1.38-0.94-1.5,0
						c-1.15,8.69-2.96,17.31-5.58,25.68c-2.59,8.29-6,16.34-10.36,23.87c-4.18,7.22-9.24,13.92-15.2,19.78
						c-5.68,5.57-12.13,10.37-19.16,14.1c-6.97,3.69-14.53,6.3-22.34,7.47c-7.87,1.18-15.95,0.79-23.69-1.03
						c-7.74-1.82-15.14-5.03-21.76-9.46c-6.61-4.42-12.4-10.08-16.87-16.66c-4.52-6.65-7.75-14.13-9.57-21.95
						c-1.83-7.85-2.25-16.08-1.08-24.06c0.29-1.95,0.66-3.88,1.13-5.79C179.49-25.64,178.04-26.04,177.81-25.1L177.81-25.1z"/>
				</g>
			</g>
			<g>
				<g>
					<path class="st13" d="M201.96-24.9c-5.08,13.73-6.18,29.56-0.47,43.29c4.66,11.21,13.9,20.75,25.52,24.64
						c13.05,4.37,27.09,0.39,38.32-6.82c11.31-7.26,20.51-17.8,27.06-29.46c6.52-11.61,10.51-24.64,11.44-37.93
						c0.11-1.6,0.18-3.21,0.2-4.81c0.01-0.97-1.49-0.97-1.5,0c-0.2,12.99-3.38,25.89-9.11,37.54c-5.73,11.66-14.02,22.36-24.4,30.24
						c-10.46,7.95-23.9,13.53-37.21,10.95c-11.76-2.28-21.6-10.69-27.16-21.11c-6.67-12.52-6.8-27.63-2.95-41.03
						c0.49-1.72,1.06-3.43,1.68-5.11C203.75-25.41,202.3-25.8,201.96-24.9L201.96-24.9z"/>
				</g>
			</g>
			<g>
				<g>
					<path class="st14" d="M219.42-28.09c-3.96,9.8-6.32,20.85-3.14,31.21c1.35,4.39,3.64,8.54,6.89,11.81
						c3.43,3.45,7.85,5.68,12.56,6.77c9.44,2.2,19.71,0.48,28.53-3.27c8.95-3.8,16.77-10.05,22.38-18
						c5.66-8.04,9.02-17.68,9.59-27.5c0.07-1.24,0.1-2.47,0.08-3.71c-0.01-0.96-1.51-0.97-1.5,0c0.13,9.59-2.49,19.13-7.43,27.34
						c-4.84,8.04-11.9,14.56-20.23,18.86c-8.27,4.27-17.95,6.52-27.25,5.48c-4.68-0.52-9.3-2.03-13.12-4.83
						c-3.58-2.63-6.26-6.37-7.99-10.43c-4.04-9.51-2.64-20.15,0.68-29.64c0.44-1.25,0.91-2.48,1.4-3.7
						C221.23-28.59,219.78-28.98,219.42-28.09L219.42-28.09z"/>
				</g>
			</g>
			<g>
				<g>
					<path class="st13" d="M263.67,210.21c6.73,4.27,15.96,3.98,22.8,0.09c2.94-1.67,5.57-4.17,6.7-7.42
						c1.19-3.45,0.24-7.19-1.58-10.23c-2.21-3.69-5.62-6.64-9.33-8.77c-3.94-2.25-8.45-3.68-13.01-3.74
						c-6.2-0.08-12.69,3.22-15.4,8.98c-1.33,2.84-1.58,6.04-0.67,9.05c1.2,3.94,4.05,7.18,7.22,9.7
						C261.45,208.71,262.54,209.49,263.67,210.21c0.81,0.52,1.57-0.77,0.76-1.3c-5.71-3.68-12.04-9.95-9.88-17.42
						c1.54-5.36,6.89-9.02,12.26-9.73c3.98-0.52,8.18,0.38,11.83,1.97c3.79,1.64,7.29,4.09,9.94,7.26c2.19,2.61,3.88,5.95,3.59,9.44
						c-0.26,3.02-2.24,5.6-4.6,7.36c-5.72,4.26-14.16,5.29-20.7,2.43c-0.85-0.37-1.66-0.81-2.44-1.31
						C263.61,208.4,262.85,209.7,263.67,210.21z"/>
				</g>
			</g>
			<g>
				<g>
					<path class="st11" d="M430.27,434.6c-2.01,2.32-3.18,5.29-4.06,8.19c-1.11,3.67-1.73,7.49-2.09,11.3
						c-0.81,8.54,0.09,17.01,2.5,25.23c2.51,8.55,6.39,16.71,10.68,24.5c4.01,7.3,8.57,14.29,13.68,20.88
						c4.86,6.27,10.22,12.15,16.08,17.51c5.62,5.15,11.7,9.81,18.17,13.84c6.24,3.89,12.85,7.17,19.74,9.75
						c6.72,2.51,13.83,4.53,20.98,5.33c3.64,0.41,7.37,0.36,10.94-0.52c3.79-0.94,7.27-2.88,10.03-5.65
						c5.36-5.36,7.77-12.9,8.55-20.28c0.83-7.81-0.03-15.8-1.78-23.43c-1.53-6.7-3.87-13.18-6.78-19.4
						c-2.91-6.22-6.4-12.17-10.3-17.83c-3.98-5.78-8.39-11.28-13.12-16.46c-4.7-5.14-9.73-9.98-15.05-14.48
						c-5.11-4.32-10.48-8.33-16.12-11.94c-5.21-3.34-10.66-6.34-16.33-8.81c-5.01-2.18-10.21-3.99-15.58-5.07
						c-4.59-0.92-9.35-1.34-14.01-0.76c-4.13,0.52-8.18,1.81-11.64,4.15C433.09,431.78,431.58,433.1,430.27,434.6
						c-0.63,0.72,0.42,1.79,1.06,1.06c2.6-2.96,5.92-5.16,9.66-6.42c4.02-1.36,8.31-1.68,12.53-1.41c4.94,0.32,9.81,1.47,14.51,3.03
						c5.44,1.81,10.68,4.2,15.72,6.94c5.55,3.02,10.87,6.48,15.95,10.25c5.39,3.99,10.5,8.35,15.34,12.99
						c4.98,4.78,9.66,9.87,13.98,15.25c4.27,5.32,8.17,10.93,11.61,16.81c3.34,5.72,6.25,11.71,8.51,17.94
						c2.46,6.8,4.16,13.91,4.84,21.12c0.71,7.5,0.41,15.35-2.28,22.46c-1.27,3.36-3.15,6.54-5.67,9.11
						c-2.71,2.76-6.12,4.64-9.89,5.51c-6.93,1.6-14.28-0.02-21.02-1.8c-6.91-1.83-13.62-4.39-20.01-7.59
						c-6.53-3.27-12.73-7.19-18.53-11.63c-6.03-4.61-11.62-9.8-16.76-15.39c-5.41-5.89-10.3-12.24-14.69-18.92
						c-4.6-7.01-8.66-14.39-12.13-22.02c-3.75-8.24-6.68-17-7.47-26.07c-0.65-7.44-0.03-15.29,2.09-22.46
						c0.8-2.7,1.85-5.54,3.72-7.7C431.96,434.93,430.9,433.87,430.27,434.6z"/>
				</g>
			</g>
			<g>
				<g>
					<path class="st12" d="M462.03,461.72c-1.18,1.62-1.81,3.64-2.28,5.57c-0.61,2.5-0.92,5.08-1.08,7.65
						c-0.35,5.66,0.23,11.27,1.69,16.75c1.57,5.86,4.03,11.47,6.76,16.87c2.56,5.06,5.46,9.95,8.73,14.59
						c5.97,8.44,13.17,16.06,21.67,21.98c3.87,2.69,7.99,4.99,12.34,6.82c4.19,1.76,8.64,3.17,13.16,3.81
						c4.75,0.66,9.61-0.06,13.14-3.56c3.62-3.59,5.12-8.81,5.64-13.74c0.55-5.3,0.01-10.7-1.04-15.91
						c-0.96-4.75-2.45-9.36-4.34-13.82c-3.71-8.76-8.92-16.86-14.99-24.17c-5.84-7.03-12.55-13.39-20.02-18.65
						c-6.11-4.3-12.97-8.11-20.34-9.71c-5.54-1.2-11.66-1.01-16.28,2.64C463.73,459.67,462.83,460.65,462.03,461.72
						c-0.58,0.77,0.72,1.52,1.3,0.76c3.21-4.31,8.38-5.78,13.58-5.4c6.78,0.51,13.3,3.57,19.04,7.04
						c7.35,4.45,13.97,10.09,19.85,16.33c6.34,6.73,11.88,14.26,16.2,22.44c4.45,8.44,7.58,17.67,8.35,27.22
						c0.71,8.76-0.65,22.2-11.35,24.16c-4.29,0.79-8.9-0.44-12.99-1.7c-4.29-1.31-8.42-3.14-12.32-5.35
						c-8.51-4.84-15.88-11.49-22.09-19.02c-7.02-8.51-12.71-18.27-16.89-28.47c-2.25-5.48-3.98-11.27-4.48-17.19
						c-0.41-4.94-0.19-10.11,0.99-14.94c0.44-1.79,1.01-3.63,2.11-5.13C463.9,461.7,462.59,460.95,462.03,461.72z"/>
				</g>
			</g>
			<g>
				<g>
					<path class="st13" d="M502.17,477.05c-4.25-7.43-13.35-10.69-21.52-8.64c-3.81,0.96-7.31,3.11-9.6,6.33
						c-2.43,3.41-3.19,7.77-2.88,11.88c0.34,4.51,1.86,8.94,4.21,12.8c2.29,3.74,5.45,7.1,9.39,9.13c3.18,1.64,6.65,2.17,10.17,1.5
						c3.41-0.65,6.6-2.4,9.08-4.83c2.73-2.68,4.55-6.22,5.19-9.99c0.82-4.83-0.16-9.73-2.05-14.19
						C503.56,479.67,502.9,478.35,502.17,477.05c-0.47-0.84-1.77-0.09-1.3,0.76c2.43,4.33,4.2,9.18,4.12,14.2
						c-0.06,3.71-1.2,7.35-3.44,10.32c-3.71,4.94-10.5,7.82-16.55,5.95c-3.84-1.19-7.1-3.92-9.56-7.04
						c-2.62-3.33-4.45-7.32-5.32-11.47c-0.81-3.84-0.79-8.03,0.77-11.69c1.45-3.39,4.25-5.96,7.62-7.39
						c6.97-2.94,15.71-1.19,20.65,4.64c0.65,0.77,1.21,1.6,1.71,2.48C501.36,478.65,502.65,477.89,502.17,477.05z"/>
				</g>
			</g>
			<g>
				<g>
					<path class="st11" d="M167.32-14.57c-1.42,2.75-2.34,5.83-3.16,8.8c-2.29,8.24-3.33,16.84-3.58,25.37
						c-0.19,6.31,0.07,12.62,0.69,18.9c0.36,3.6,0.83,7.18,1.41,10.75c0.54,3.34,1.1,6.71,2.1,9.95
						c3.36,10.92,10.82,20.06,19.84,26.89c9.27,7.03,20.31,11.86,31.71,14.15c11.98,2.4,24.44,1.46,36-2.46
						c11.82-4.01,22.63-11.02,30.97-20.34c8.27-9.23,13.69-20.68,22.35-29.58c2.13-2.19,4.45-4.19,7.01-5.86
						c2.53-1.65,5.28-2.89,8.08-4.01c5.45-2.16,11.25-3.95,15.81-7.78c4.84-4.06,7.06-10.13,7.08-16.35
						c0.02-6.89-2.58-13.36-6.03-19.21c-1.81-3.07-3.84-6-5.88-8.92c-0.55-0.79-1.85-0.04-1.3,0.76
						c4.07,5.85,8.24,11.83,10.37,18.71c1.85,5.96,2.03,12.89-0.92,18.54c-2.81,5.38-8.15,8.3-13.57,10.49
						c-5.46,2.2-11.08,4.02-15.91,7.51c-9.77,7.07-15.65,18.02-22.58,27.61c-3.63,5.02-7.69,9.67-12.41,13.69
						c-4.69,3.99-9.91,7.35-15.45,10.02c-10.88,5.24-23.12,7.73-35.19,6.84c-11.42-0.84-22.73-4.69-32.56-10.52
						c-9.68-5.74-18.27-13.77-23.32-23.93c-2.79-5.61-3.98-11.6-4.94-17.75c-1.04-6.68-1.69-13.42-1.88-20.18
						c-0.26-9.56,0.38-19.21,2.45-28.56c0.62-2.78,1.36-5.54,2.28-8.24c0.5-1.47,1.01-2.82,1.58-4.05c0.08-0.17,0.15-0.33,0.24-0.5
						C169.06-14.67,167.76-15.43,167.32-14.57L167.32-14.57z"/>
				</g>
			</g>
			<g>
				<g>
					<path class="st8" d="M779.45,294.12c-15.74-27.25-37.45-50.83-62.96-69.22c-25.59-18.45-55.02-31.69-85.93-38.15
						c-15.4-3.22-31.62-5.27-47.36-4.58c-7.73,0.34-15.53,1.53-22.73,4.47c-6.48,2.64-11.92,6.76-16.75,11.77
						c-17.28,17.9-24.53,42.99-29.05,66.82c-2.26,11.93-3.84,23.97-5.63,35.98c-1.46,9.76-2.89,19.71-6.04,29.1
						c-2.22,6.64-5.4,12.57-11.73,15.97c-6.33,3.4-13.56,4.9-20.59,6.01c-16.84,2.66-34.09,2.94-50.56,7.73
						c-8.03,2.34-15.8,5.79-22.41,10.98c-7.24,5.7-12.58,13.3-16.03,21.81c-4.75,11.7-6.06,24.64-5.96,37.17
						c0.13,16.92,3.62,33.66,9.46,49.51c11.96,32.47,32.78,60.92,54.58,87.43c5.39,6.56,10.89,13.03,16.43,19.47
						c0.63,0.73,1.69-0.33,1.06-1.06c-22.56-26.24-44.98-53.29-60.88-84.22c-14.64-28.48-23.35-61.51-17.35-93.54
						c1.88-10.04,5.53-19.95,12.04-27.94c5.39-6.61,12.44-11.52,20.24-14.89c15.71-6.79,33.21-7.74,49.99-9.69
						c7.53-0.88,15.15-1.86,22.42-4.09c5.98-1.83,11.96-4.49,15.7-9.71c4.6-6.41,6.52-14.67,8.1-22.26
						c2.22-10.66,3.56-21.49,5.14-32.25c3.55-24.12,7.71-49.26,19.93-70.73c6.27-11.02,15.07-21.93,26.85-27.28
						c14.69-6.67,31.87-5.64,47.51-4.05c31.41,3.18,61.81,13.05,89.15,28.82c27.16,15.67,51.18,36.92,69.66,62.29
						c4.47,6.14,8.61,12.52,12.41,19.1C778.63,295.71,779.93,294.95,779.45,294.12L779.45,294.12z"/>
				</g>
			</g>
			<g>
				<g>
					<path class="st9" d="M785.27,331.55c-4-8.31-9.05-16.11-14.36-23.64c-7.05-10.01-14.77-19.55-22.92-28.68
						c-18.99-21.26-40.6-40.65-64.89-55.68c-23.22-14.37-50.02-25.17-77.74-24.41c-13.73,0.38-27.23,3.73-39.54,9.81
						c-4.9,2.42-9.42,5.25-13.22,9.22c-3.48,3.63-6.26,7.89-8.46,12.4c-5.01,10.26-7.25,21.7-8.57,32.96
						c-1.48,12.7-1.71,25.52-1.7,38.29c0.01,12.4,0.34,24.81,0.02,37.21c-0.25,9.54-0.59,19.56-3.63,28.7
						c-1.06,3.18-2.55,6.37-4.95,8.77c-2.29,2.29-5.22,3.98-8.14,5.33c-7.11,3.29-15.03,4.72-22.73,5.88
						c-18.21,2.73-36.87,3.37-54.61,8.71c-8.4,2.53-16.55,6.19-23.37,11.78c-7.15,5.86-12.27,13.71-15.18,22.46
						c-4.01,12.04-4.11,25.15-2.81,37.65c1.92,18.34,6.67,36.68,15.42,52.99c4.4,8.19,9.86,15.79,16.33,22.47
						c0.67,0.69,1.73-0.37,1.06-1.06c-13.62-14.05-22.24-32.03-27.09-50.84c-3.89-15.09-6.12-31.28-4.43-46.86
						c1.1-10.15,4.23-20.25,10.56-28.39c5.35-6.88,12.63-11.88,20.56-15.35c16.9-7.4,35.86-8.62,53.95-10.78
						c8.19-0.98,16.44-2.02,24.4-4.23c6.23-1.73,13.21-4.31,17.66-9.25c4.99-5.54,6.41-13.74,7.32-20.87
						c1.4-10.93,1.32-22.04,1.27-33.04c-0.13-24.84-1.51-50.49,4.16-74.88c2.37-10.16,6.2-20.44,13.33-28.26
						c3.74-4.1,8.21-7.01,13.15-9.48c6.28-3.13,12.89-5.57,19.71-7.23c26.91-6.54,54.81,0.04,79.21,12.03
						c25.68,12.61,48.47,30.84,68.6,51.01c16.75,16.78,32.39,35.3,44.63,55.68c2.03,3.38,3.95,6.82,5.66,10.38
						C784.4,333.17,785.69,332.41,785.27,331.55L785.27,331.55z"/>
				</g>
			</g>
			<g>
				<g>
					<path class="st9" d="M765.42,339c-5.87-13.72-13.57-26.61-22.82-38.32c-9.24-11.71-20.03-22.18-32.01-31.06
						c-12.27-9.1-26.1-16.48-41-20.16c-14.2-3.51-29.34-3.31-42.93,2.46c-11.62,4.93-21.28,13.52-28.55,23.75
						c-7.56,10.64-12.64,23.03-15.4,35.75c-3.32,15.3-2.96,31.16-0.92,46.61c2.28,17.32,6.69,34.25,11.04,51.14
						c4.28,16.59,8.5,33.25,10.58,50.28c2.02,16.49,2.11,33.42-1.9,49.63c-0.97,3.91-2.18,7.76-3.61,11.53
						c-0.34,0.9,1.11,1.29,1.45,0.4c5.75-15.1,7.49-31.35,6.77-47.41c-0.74-16.43-3.87-32.67-7.74-48.62
						c-4.08-16.81-8.87-33.46-12.29-50.42c-3.33-16.52-5.41-33.55-3.84-50.4c1.21-12.95,4.84-25.79,10.84-37.34
						c5.85-11.27,14.11-21.48,24.78-28.49c11.82-7.75,25.89-10.75,39.9-9.4c15.27,1.47,29.87,7.59,42.79,15.66
						c12.59,7.86,23.98,17.76,33.9,28.78c9.94,11.04,18.41,23.4,25.12,36.66c1.62,3.2,3.13,6.45,4.54,9.74
						C764.51,340.65,765.8,339.88,765.42,339L765.42,339z"/>
				</g>
			</g>
			<g>
				<g>
					<path class="st10" d="M588.63,507.78c-10.09-6.03-18.88-13.94-26.84-22.54c-8.01-8.65-15.21-17.99-22.51-27.23
						c-7.26-9.2-14.67-18.33-23.03-26.56c-8.16-8.02-17.32-15.31-27.7-20.25c-9.83-4.68-20.74-7.4-31.66-7.19
						c-10.56,0.21-21.03,3.34-29.45,9.83c-7.6,5.86-13.07,14-16.45,22.91c-3.5,9.22-4.83,19.26-4.31,29.09
						c0.61,11.4,3.89,22.51,8.35,32.96c4.83,11.34,11.12,21.98,17.66,32.4c1.59,2.53,3.19,5.05,4.79,7.56
						c0.52,0.81,1.82,0.06,1.3-0.76c-6.51-10.21-13-20.47-18.43-31.31c-5.31-10.61-9.61-21.89-11.42-33.66
						c-1.48-9.64-1.07-19.65,1.37-29.1c2.37-9.21,6.77-18.01,13.47-24.84c7.22-7.35,16.81-11.81,27-13.14
						c10.69-1.39,21.67,0.41,31.69,4.24c10.56,4.04,19.97,10.6,28.32,18.14c8.58,7.75,16.12,16.57,23.35,25.57
						c7.25,9.02,14.22,18.28,21.81,27.03c7.47,8.61,15.57,16.77,24.84,23.46c2.3,1.66,4.67,3.22,7.1,4.67
						C588.7,509.57,589.46,508.27,588.63,507.78L588.63,507.78z"/>
				</g>
			</g>
			<g>
				<g>
					<path class="st11" d="M608.75,306.2c-2.51,2.9-3.97,6.62-5.07,10.25c-1.39,4.61-2.18,9.41-2.63,14.2
						c-1.02,10.76,0.11,21.42,3.15,31.78c3.16,10.77,8.05,21.05,13.45,30.87c5.05,9.2,10.8,18.01,17.23,26.3
						c6.13,7.91,12.9,15.33,20.28,22.09c7.08,6.48,14.74,12.36,22.89,17.44c7.86,4.89,16.18,9.03,24.86,12.28
						c8.46,3.16,17.42,5.71,26.41,6.72c4.57,0.51,9.26,0.46,13.75-0.65c4.75-1.18,9.11-3.61,12.57-7.08
						c6.72-6.72,9.75-16.19,10.73-25.44c1.05-9.84-0.04-19.9-2.23-29.52c-1.93-8.43-4.87-16.6-8.54-24.43
						c-3.68-7.85-8.08-15.36-12.99-22.49c-5.01-7.28-10.56-14.2-16.53-20.73c-5.93-6.49-12.28-12.59-18.99-18.27
						c-6.43-5.44-13.2-10.49-20.3-15.03c-6.58-4.21-13.44-8-20.61-11.12c-6.31-2.75-12.86-5.02-19.62-6.38
						c-5.78-1.16-11.76-1.68-17.63-0.95c-5.18,0.65-10.25,2.27-14.59,5.22C612.28,302.66,610.4,304.32,608.75,306.2
						c-0.63,0.72,0.42,1.79,1.06,1.06c3.31-3.76,7.53-6.55,12.27-8.16c5.09-1.72,10.52-2.13,15.86-1.78
						c6.25,0.41,12.42,1.86,18.35,3.83c6.88,2.28,13.51,5.31,19.88,8.78c7.01,3.82,13.71,8.18,20.12,12.93
						c6.81,5.05,13.28,10.55,19.39,16.42c6.28,6.03,12.19,12.45,17.63,19.25c5.39,6.72,10.33,13.81,14.68,21.25
						c4.23,7.23,7.9,14.81,10.75,22.69c3.11,8.6,5.26,17.59,6.12,26.7c0.89,9.48,0.51,19.4-2.88,28.39
						c-1.61,4.27-3.99,8.31-7.2,11.58c-3.44,3.51-7.78,5.9-12.56,7c-8.78,2.02-18.09-0.01-26.63-2.27
						c-8.74-2.31-17.22-5.55-25.29-9.6c-8.24-4.13-16.06-9.08-23.38-14.67c-7.62-5.83-14.69-12.38-21.18-19.45
						c-6.84-7.44-13.02-15.47-18.56-23.92c-5.8-8.85-10.92-18.15-15.3-27.78c-4.75-10.43-8.45-21.52-9.45-32.99
						c-0.41-4.75-0.33-9.55,0.09-14.29c0.42-4.76,1.2-9.51,2.56-14.1c1.02-3.44,2.37-7.05,4.75-9.81
						C610.44,306.53,609.38,305.47,608.75,306.2z"/>
				</g>
			</g>
			<g>
				<g>
					<path class="st12" d="M619.54,320.35c-1.39,1.9-2.12,4.28-2.67,6.55c-0.69,2.88-1.06,5.85-1.25,8.8
						c-0.42,6.67,0.26,13.28,2,19.73c1.82,6.76,4.65,13.23,7.79,19.47c3.01,5.97,6.42,11.74,10.28,17.21
						c6.95,9.84,15.34,18.74,25.25,25.66c4.55,3.18,9.41,5.9,14.53,8.06c4.88,2.06,10.07,3.7,15.33,4.45c2.66,0.38,5.36,0.46,8-0.11
						c2.79-0.61,5.35-2,7.37-4.01c4.21-4.18,5.96-10.25,6.56-16c0.64-6.18,0.02-12.48-1.2-18.55c-1.12-5.56-2.87-10.98-5.08-16.2
						c-4.34-10.25-10.44-19.73-17.54-28.28c-6.84-8.24-14.71-15.7-23.48-21.87c-7.13-5.02-15.13-9.45-23.72-11.32
						c-6.44-1.4-13.57-1.19-18.95,3.05C621.53,317.96,620.48,319.1,619.54,320.35c-0.58,0.77,0.72,1.52,1.3,0.76
						c1.75-2.35,4.15-4.21,6.86-5.24c2.92-1.11,6.03-1.38,9.13-1.15c7.98,0.59,15.63,4.19,22.38,8.27
						c8.62,5.21,16.37,11.83,23.27,19.15c7.47,7.93,13.99,16.81,19.07,26.46c5.2,9.89,8.85,20.73,9.73,31.92
						c0.82,10.34-0.87,26.12-13.53,28.33c-2.53,0.44-5.15,0.25-7.67-0.19c-2.53-0.44-5.04-1.07-7.49-1.83
						c-5.08-1.56-9.96-3.72-14.58-6.35c-9.92-5.66-18.53-13.43-25.77-22.23c-8.26-10.02-14.95-21.51-19.86-33.52
						c-2.63-6.42-4.64-13.19-5.21-20.13c-0.47-5.78-0.21-11.82,1.18-17.47c0.51-2.1,1.19-4.26,2.48-6.03
						C621.41,320.33,620.11,319.58,619.54,320.35z"/>
				</g>
			</g>
			<g>
				<g>
					<path class="st13" d="M690.19,373.05c-2.48-4.35-6.44-7.6-11.12-9.33c-4.44-1.64-9.42-1.88-14.01-0.71
						c-4.43,1.13-8.5,3.64-11.15,7.4c-2.8,3.97-3.68,9.04-3.31,13.81c0.4,5.24,2.16,10.38,4.89,14.86c2.68,4.4,6.4,8.34,11.02,10.71
						c3.7,1.9,7.75,2.51,11.84,1.7c3.96-0.78,7.66-2.8,10.52-5.63c3.18-3.14,5.29-7.27,6.03-11.67c0.94-5.61-0.21-11.31-2.41-16.49
						C691.82,376.11,691.04,374.56,690.19,373.05c-0.47-0.84-1.77-0.09-1.3,0.76c2.87,5.09,4.94,10.81,4.84,16.72
						c-0.07,4.33-1.4,8.57-4,12.06c-4.35,5.86-12.39,9.3-19.55,7.1c-4.56-1.4-8.43-4.64-11.32-8.34c-3.06-3.92-5.21-8.59-6.23-13.46
						c-0.95-4.51-0.92-9.4,0.89-13.7c1.69-4.01,4.98-7.04,8.95-8.74c8.24-3.52,18.63-1.44,24.44,5.49c0.75,0.89,1.4,1.86,1.98,2.87
						C689.38,374.65,690.67,373.89,690.19,373.05z"/>
				</g>
			</g>
			<g>
				<g>
					<path class="st10" d="M804.47,390.5c-16.36-9.78-29.67-23.67-41.77-38.22c-12.11-14.57-23.18-30-36.03-43.94
						c-12.38-13.44-26.65-25.76-43.68-32.85c-15.92-6.62-34.4-8.95-51.02-3.52c-15.36,5.02-27.18,16.68-33.74,31.3
						c-6.44,14.36-8.12,30.71-5.86,46.22c2.76,18.89,10.45,36.93,19.88,53.4c4.89,8.54,10.39,16.67,16.04,24.72
						c5.8,8.26,10.79,17.11,14.61,26.45c5.63,13.76,8.78,28.56,8.73,43.45c-0.03,7.4-0.71,14.98-2.74,22.13
						c-0.09,0.33-0.19,0.66-0.3,0.98c-0.31,0.92,1.14,1.31,1.45,0.4c1.62-4.82,2.28-10.1,2.72-15.14
						c1.11-12.71-0.24-25.63-3.56-37.93c-2.29-8.48-5.53-16.69-9.54-24.49c-2.35-4.57-4.96-8.99-7.79-13.27
						c-2.76-4.17-5.74-8.18-8.53-12.33c-10.77-16.06-20.16-33.29-25.69-51.89c-2.51-8.44-4.3-17.14-4.65-25.96
						c-0.31-7.91,0.42-15.86,2.31-23.55c3.71-15.1,12.13-29.29,25.53-37.65c14.98-9.36,33.67-10.11,50.41-5.7
						c17.82,4.69,33.11,15.27,46.23,27.95c13.47,13.01,24.73,28.03,36.35,42.65c11.63,14.63,23.81,29.08,38.72,40.5
						c3.58,2.74,7.3,5.28,11.17,7.59C804.54,392.29,805.3,390.99,804.47,390.5L804.47,390.5z"/>
				</g>
			</g>
		</g>
	</g>
</g>
<g id="objects">
</g>
</svg>
